<?xml version="1.0" encoding="utf-8" standalone="no"?>
<!DOCTYPE svg PUBLIC "-//W3C//DTD SVG 1.1//EN"
  "http://www.w3.org/Graphics/SVG/1.1/DTD/svg11.dtd">
<!-- Created with matplotlib (http://matplotlib.org/) -->
<svg height="396pt" version="1.1" viewBox="0 0 576 396" width="576pt" xmlns="http://www.w3.org/2000/svg" xmlns:xlink="http://www.w3.org/1999/xlink">
 <defs>
  <style type="text/css">
*{stroke-linecap:butt;stroke-linejoin:round;stroke-miterlimit:100000;}
  </style>
 </defs>
 <g id="figure_1">
  <g id="patch_1">
   <path d="M 0 396 
L 576 396 
L 576 0 
L 0 0 
z
" style="fill:#ffffff;"/>
  </g>
  <g id="axes_1">
   <g id="patch_2">
    <path d="M 72 356.4 
L 518.4 356.4 
L 518.4 39.6 
L 72 39.6 
z
" style="fill:#eaeaf2;"/>
   </g>
   <g id="matplotlib.axis_1">
    <g id="xtick_1">
     <g id="line2d_1">
      <path clip-path="url(#p3f1b6e89e5)" d="M 129.864578 356.4 
L 129.864578 39.6 
" style="fill:none;stroke:#ffffff;stroke-linecap:round;"/>
     </g>
     <g id="line2d_2">
      <defs>
       <path d="M 0 0 
L 0 0 
" id="mc53c2da785" style="stroke:#262626;"/>
      </defs>
      <g>
       <use style="fill:#262626;stroke:#262626;" x="129.864578247" xlink:href="#mc53c2da785" y="356.4"/>
      </g>
     </g>
     <g id="line2d_3">
      <g>
       <use style="fill:#262626;stroke:#262626;" x="129.864578247" xlink:href="#mc53c2da785" y="39.6"/>
      </g>
     </g>
     <g id="text_1">
      <!-- 13:10:00.000000 -->
      <defs>
       <path d="M 4.15625 35.296875 
Q 4.15625 48 6.765625 55.734375 
Q 9.375 63.484375 14.515625 67.671875 
Q 19.671875 71.875 27.484375 71.875 
Q 33.25 71.875 37.59375 69.546875 
Q 41.9375 67.234375 44.765625 62.859375 
Q 47.609375 58.5 49.21875 52.21875 
Q 50.828125 45.953125 50.828125 35.296875 
Q 50.828125 22.703125 48.234375 14.96875 
Q 45.65625 7.234375 40.5 3 
Q 35.359375 -1.21875 27.484375 -1.21875 
Q 17.140625 -1.21875 11.234375 6.203125 
Q 4.15625 15.140625 4.15625 35.296875 
M 13.1875 35.296875 
Q 13.1875 17.671875 17.3125 11.828125 
Q 21.4375 6 27.484375 6 
Q 33.546875 6 37.671875 11.859375 
Q 41.796875 17.71875 41.796875 35.296875 
Q 41.796875 52.984375 37.671875 58.78125 
Q 33.546875 64.59375 27.390625 64.59375 
Q 21.34375 64.59375 17.71875 59.46875 
Q 13.1875 52.9375 13.1875 35.296875 
" id="ArialMT-30"/>
       <path d="M 37.25 0 
L 28.46875 0 
L 28.46875 56 
Q 25.296875 52.984375 20.140625 49.953125 
Q 14.984375 46.921875 10.890625 45.40625 
L 10.890625 53.90625 
Q 18.265625 57.375 23.78125 62.296875 
Q 29.296875 67.234375 31.59375 71.875 
L 37.25 71.875 
z
" id="ArialMT-31"/>
       <path d="M 9.078125 0 
L 9.078125 10.015625 
L 19.09375 10.015625 
L 19.09375 0 
z
" id="ArialMT-2e"/>
       <path d="M 4.203125 18.890625 
L 12.984375 20.0625 
Q 14.5 12.59375 18.140625 9.296875 
Q 21.78125 6 27 6 
Q 33.203125 6 37.46875 10.296875 
Q 41.75 14.59375 41.75 20.953125 
Q 41.75 27 37.796875 30.921875 
Q 33.84375 34.859375 27.734375 34.859375 
Q 25.25 34.859375 21.53125 33.890625 
L 22.515625 41.609375 
Q 23.390625 41.5 23.921875 41.5 
Q 29.546875 41.5 34.03125 44.421875 
Q 38.53125 47.359375 38.53125 53.46875 
Q 38.53125 58.296875 35.25 61.46875 
Q 31.984375 64.65625 26.8125 64.65625 
Q 21.6875 64.65625 18.265625 61.421875 
Q 14.84375 58.203125 13.875 51.765625 
L 5.078125 53.328125 
Q 6.6875 62.15625 12.390625 67.015625 
Q 18.109375 71.875 26.609375 71.875 
Q 32.46875 71.875 37.390625 69.359375 
Q 42.328125 66.84375 44.9375 62.5 
Q 47.5625 58.15625 47.5625 53.265625 
Q 47.5625 48.640625 45.0625 44.828125 
Q 42.578125 41.015625 37.703125 38.765625 
Q 44.046875 37.3125 47.5625 32.6875 
Q 51.078125 28.078125 51.078125 21.140625 
Q 51.078125 11.765625 44.234375 5.25 
Q 37.40625 -1.265625 26.953125 -1.265625 
Q 17.53125 -1.265625 11.296875 4.34375 
Q 5.078125 9.96875 4.203125 18.890625 
" id="ArialMT-33"/>
       <path d="M 9.03125 41.84375 
L 9.03125 51.859375 
L 19.046875 51.859375 
L 19.046875 41.84375 
z
M 9.03125 0 
L 9.03125 10.015625 
L 19.046875 10.015625 
L 19.046875 0 
z
" id="ArialMT-3a"/>
      </defs>
      <g style="fill:#262626;" transform="translate(92.3317657471 370.5578125)scale(0.1 -0.1)">
       <use xlink:href="#ArialMT-31"/>
       <use x="55.615234375" xlink:href="#ArialMT-33"/>
       <use x="111.23046875" xlink:href="#ArialMT-3a"/>
       <use x="139.013671875" xlink:href="#ArialMT-31"/>
       <use x="194.62890625" xlink:href="#ArialMT-30"/>
       <use x="250.244140625" xlink:href="#ArialMT-3a"/>
       <use x="278.02734375" xlink:href="#ArialMT-30"/>
       <use x="333.642578125" xlink:href="#ArialMT-30"/>
       <use x="389.2578125" xlink:href="#ArialMT-2e"/>
       <use x="417.041015625" xlink:href="#ArialMT-30"/>
       <use x="472.65625" xlink:href="#ArialMT-30"/>
       <use x="528.271484375" xlink:href="#ArialMT-30"/>
       <use x="583.88671875" xlink:href="#ArialMT-30"/>
       <use x="639.501953125" xlink:href="#ArialMT-30"/>
       <use x="695.1171875" xlink:href="#ArialMT-30"/>
      </g>
     </g>
    </g>
    <g id="xtick_2">
     <g id="line2d_4">
      <path clip-path="url(#p3f1b6e89e5)" d="M 201.479538 356.4 
L 201.479538 39.6 
" style="fill:none;stroke:#ffffff;stroke-linecap:round;"/>
     </g>
     <g id="line2d_5">
      <g>
       <use style="fill:#262626;stroke:#262626;" x="201.479537964" xlink:href="#mc53c2da785" y="356.4"/>
      </g>
     </g>
     <g id="line2d_6">
      <g>
       <use style="fill:#262626;stroke:#262626;" x="201.479537964" xlink:href="#mc53c2da785" y="39.6"/>
      </g>
     </g>
     <g id="text_2">
      <!-- 13:11:00.000000 -->
      <g style="fill:#262626;" transform="translate(163.952194214 370.5578125)scale(0.1 -0.1)">
       <use xlink:href="#ArialMT-31"/>
       <use x="55.615234375" xlink:href="#ArialMT-33"/>
       <use x="111.23046875" xlink:href="#ArialMT-3a"/>
       <use x="139.013671875" xlink:href="#ArialMT-31"/>
       <use x="194.51953125" xlink:href="#ArialMT-31"/>
       <use x="250.134765625" xlink:href="#ArialMT-3a"/>
       <use x="277.91796875" xlink:href="#ArialMT-30"/>
       <use x="333.533203125" xlink:href="#ArialMT-30"/>
       <use x="389.1484375" xlink:href="#ArialMT-2e"/>
       <use x="416.931640625" xlink:href="#ArialMT-30"/>
       <use x="472.546875" xlink:href="#ArialMT-30"/>
       <use x="528.162109375" xlink:href="#ArialMT-30"/>
       <use x="583.77734375" xlink:href="#ArialMT-30"/>
       <use x="639.392578125" xlink:href="#ArialMT-30"/>
       <use x="695.0078125" xlink:href="#ArialMT-30"/>
      </g>
     </g>
    </g>
    <g id="xtick_3">
     <g id="line2d_7">
      <path clip-path="url(#p3f1b6e89e5)" d="M 273.094498 356.4 
L 273.094498 39.6 
" style="fill:none;stroke:#ffffff;stroke-linecap:round;"/>
     </g>
     <g id="line2d_8">
      <g>
       <use style="fill:#262626;stroke:#262626;" x="273.094497681" xlink:href="#mc53c2da785" y="356.4"/>
      </g>
     </g>
     <g id="line2d_9">
      <g>
       <use style="fill:#262626;stroke:#262626;" x="273.094497681" xlink:href="#mc53c2da785" y="39.6"/>
      </g>
     </g>
     <g id="text_3">
      <!-- 13:12:00.000000 -->
      <defs>
       <path d="M 50.34375 8.453125 
L 50.34375 0 
L 3.03125 0 
Q 2.9375 3.171875 4.046875 6.109375 
Q 5.859375 10.9375 9.828125 15.625 
Q 13.8125 20.3125 21.34375 26.46875 
Q 33.015625 36.03125 37.109375 41.625 
Q 41.21875 47.21875 41.21875 52.203125 
Q 41.21875 57.421875 37.46875 61 
Q 33.734375 64.59375 27.734375 64.59375 
Q 21.390625 64.59375 17.578125 60.78125 
Q 13.765625 56.984375 13.71875 50.25 
L 4.6875 51.171875 
Q 5.609375 61.28125 11.65625 66.578125 
Q 17.71875 71.875 27.9375 71.875 
Q 38.234375 71.875 44.234375 66.15625 
Q 50.25 60.453125 50.25 52 
Q 50.25 47.703125 48.484375 43.546875 
Q 46.734375 39.40625 42.65625 34.8125 
Q 38.578125 30.21875 29.109375 22.21875 
Q 21.1875 15.578125 18.9375 13.203125 
Q 16.703125 10.84375 15.234375 8.453125 
z
" id="ArialMT-32"/>
      </defs>
      <g style="fill:#262626;" transform="translate(235.561685181 370.5578125)scale(0.1 -0.1)">
       <use xlink:href="#ArialMT-31"/>
       <use x="55.615234375" xlink:href="#ArialMT-33"/>
       <use x="111.23046875" xlink:href="#ArialMT-3a"/>
       <use x="139.013671875" xlink:href="#ArialMT-31"/>
       <use x="194.62890625" xlink:href="#ArialMT-32"/>
       <use x="250.244140625" xlink:href="#ArialMT-3a"/>
       <use x="278.02734375" xlink:href="#ArialMT-30"/>
       <use x="333.642578125" xlink:href="#ArialMT-30"/>
       <use x="389.2578125" xlink:href="#ArialMT-2e"/>
       <use x="417.041015625" xlink:href="#ArialMT-30"/>
       <use x="472.65625" xlink:href="#ArialMT-30"/>
       <use x="528.271484375" xlink:href="#ArialMT-30"/>
       <use x="583.88671875" xlink:href="#ArialMT-30"/>
       <use x="639.501953125" xlink:href="#ArialMT-30"/>
       <use x="695.1171875" xlink:href="#ArialMT-30"/>
      </g>
     </g>
    </g>
    <g id="xtick_4">
     <g id="line2d_10">
      <path clip-path="url(#p3f1b6e89e5)" d="M 344.709457 356.4 
L 344.709457 39.6 
" style="fill:none;stroke:#ffffff;stroke-linecap:round;"/>
     </g>
     <g id="line2d_11">
      <g>
       <use style="fill:#262626;stroke:#262626;" x="344.709457397" xlink:href="#mc53c2da785" y="356.4"/>
      </g>
     </g>
     <g id="line2d_12">
      <g>
       <use style="fill:#262626;stroke:#262626;" x="344.709457397" xlink:href="#mc53c2da785" y="39.6"/>
      </g>
     </g>
     <g id="text_4">
      <!-- 13:13:00.000000 -->
      <g style="fill:#262626;" transform="translate(307.176644897 370.5578125)scale(0.1 -0.1)">
       <use xlink:href="#ArialMT-31"/>
       <use x="55.615234375" xlink:href="#ArialMT-33"/>
       <use x="111.23046875" xlink:href="#ArialMT-3a"/>
       <use x="139.013671875" xlink:href="#ArialMT-31"/>
       <use x="194.62890625" xlink:href="#ArialMT-33"/>
       <use x="250.244140625" xlink:href="#ArialMT-3a"/>
       <use x="278.02734375" xlink:href="#ArialMT-30"/>
       <use x="333.642578125" xlink:href="#ArialMT-30"/>
       <use x="389.2578125" xlink:href="#ArialMT-2e"/>
       <use x="417.041015625" xlink:href="#ArialMT-30"/>
       <use x="472.65625" xlink:href="#ArialMT-30"/>
       <use x="528.271484375" xlink:href="#ArialMT-30"/>
       <use x="583.88671875" xlink:href="#ArialMT-30"/>
       <use x="639.501953125" xlink:href="#ArialMT-30"/>
       <use x="695.1171875" xlink:href="#ArialMT-30"/>
      </g>
     </g>
    </g>
    <g id="xtick_5">
     <g id="line2d_13">
      <path clip-path="url(#p3f1b6e89e5)" d="M 416.324417 356.4 
L 416.324417 39.6 
" style="fill:none;stroke:#ffffff;stroke-linecap:round;"/>
     </g>
     <g id="line2d_14">
      <g>
       <use style="fill:#262626;stroke:#262626;" x="416.324417114" xlink:href="#mc53c2da785" y="356.4"/>
      </g>
     </g>
     <g id="line2d_15">
      <g>
       <use style="fill:#262626;stroke:#262626;" x="416.324417114" xlink:href="#mc53c2da785" y="39.6"/>
      </g>
     </g>
     <g id="text_5">
      <!-- 13:14:00.000000 -->
      <defs>
       <path d="M 32.328125 0 
L 32.328125 17.140625 
L 1.265625 17.140625 
L 1.265625 25.203125 
L 33.9375 71.578125 
L 41.109375 71.578125 
L 41.109375 25.203125 
L 50.78125 25.203125 
L 50.78125 17.140625 
L 41.109375 17.140625 
L 41.109375 0 
z
M 32.328125 25.203125 
L 32.328125 57.46875 
L 9.90625 25.203125 
z
" id="ArialMT-34"/>
      </defs>
      <g style="fill:#262626;" transform="translate(378.791604614 370.5578125)scale(0.1 -0.1)">
       <use xlink:href="#ArialMT-31"/>
       <use x="55.615234375" xlink:href="#ArialMT-33"/>
       <use x="111.23046875" xlink:href="#ArialMT-3a"/>
       <use x="139.013671875" xlink:href="#ArialMT-31"/>
       <use x="194.62890625" xlink:href="#ArialMT-34"/>
       <use x="250.244140625" xlink:href="#ArialMT-3a"/>
       <use x="278.02734375" xlink:href="#ArialMT-30"/>
       <use x="333.642578125" xlink:href="#ArialMT-30"/>
       <use x="389.2578125" xlink:href="#ArialMT-2e"/>
       <use x="417.041015625" xlink:href="#ArialMT-30"/>
       <use x="472.65625" xlink:href="#ArialMT-30"/>
       <use x="528.271484375" xlink:href="#ArialMT-30"/>
       <use x="583.88671875" xlink:href="#ArialMT-30"/>
       <use x="639.501953125" xlink:href="#ArialMT-30"/>
       <use x="695.1171875" xlink:href="#ArialMT-30"/>
      </g>
     </g>
    </g>
    <g id="xtick_6">
     <g id="line2d_16">
      <path clip-path="url(#p3f1b6e89e5)" d="M 487.939392 356.4 
L 487.939392 39.6 
" style="fill:none;stroke:#ffffff;stroke-linecap:round;"/>
     </g>
     <g id="line2d_17">
      <g>
       <use style="fill:#262626;stroke:#262626;" x="487.93939209" xlink:href="#mc53c2da785" y="356.4"/>
      </g>
     </g>
     <g id="line2d_18">
      <g>
       <use style="fill:#262626;stroke:#262626;" x="487.93939209" xlink:href="#mc53c2da785" y="39.6"/>
      </g>
     </g>
     <g id="text_6">
      <!-- 13:15:00.000000 -->
      <defs>
       <path d="M 4.15625 18.75 
L 13.375 19.53125 
Q 14.40625 12.796875 18.140625 9.390625 
Q 21.875 6 27.15625 6 
Q 33.5 6 37.890625 10.78125 
Q 42.28125 15.578125 42.28125 23.484375 
Q 42.28125 31 38.0625 35.34375 
Q 33.84375 39.703125 27 39.703125 
Q 22.75 39.703125 19.328125 37.765625 
Q 15.921875 35.84375 13.96875 32.765625 
L 5.71875 33.84375 
L 12.640625 70.609375 
L 48.25 70.609375 
L 48.25 62.203125 
L 19.671875 62.203125 
L 15.828125 42.96875 
Q 22.265625 47.46875 29.34375 47.46875 
Q 38.71875 47.46875 45.15625 40.96875 
Q 51.609375 34.46875 51.609375 24.265625 
Q 51.609375 14.546875 45.953125 7.46875 
Q 39.0625 -1.21875 27.15625 -1.21875 
Q 17.390625 -1.21875 11.203125 4.25 
Q 5.03125 9.71875 4.15625 18.75 
" id="ArialMT-35"/>
      </defs>
      <g style="fill:#262626;" transform="translate(450.40657959 370.5578125)scale(0.1 -0.1)">
       <use xlink:href="#ArialMT-31"/>
       <use x="55.615234375" xlink:href="#ArialMT-33"/>
       <use x="111.23046875" xlink:href="#ArialMT-3a"/>
       <use x="139.013671875" xlink:href="#ArialMT-31"/>
       <use x="194.62890625" xlink:href="#ArialMT-35"/>
       <use x="250.244140625" xlink:href="#ArialMT-3a"/>
       <use x="278.02734375" xlink:href="#ArialMT-30"/>
       <use x="333.642578125" xlink:href="#ArialMT-30"/>
       <use x="389.2578125" xlink:href="#ArialMT-2e"/>
       <use x="417.041015625" xlink:href="#ArialMT-30"/>
       <use x="472.65625" xlink:href="#ArialMT-30"/>
       <use x="528.271484375" xlink:href="#ArialMT-30"/>
       <use x="583.88671875" xlink:href="#ArialMT-30"/>
       <use x="639.501953125" xlink:href="#ArialMT-30"/>
       <use x="695.1171875" xlink:href="#ArialMT-30"/>
      </g>
     </g>
    </g>
   </g>
   <g id="matplotlib.axis_2">
    <g id="ytick_1">
     <g id="line2d_19">
      <path clip-path="url(#p3f1b6e89e5)" d="M 72 356.4 
L 518.4 356.4 
" style="fill:none;stroke:#ffffff;stroke-linecap:round;"/>
     </g>
     <g id="line2d_20">
      <g>
       <use style="fill:#262626;stroke:#262626;" x="72.0" xlink:href="#mc53c2da785" y="356.4"/>
      </g>
     </g>
     <g id="line2d_21">
      <g>
       <use style="fill:#262626;stroke:#262626;" x="518.4" xlink:href="#mc53c2da785" y="356.4"/>
      </g>
     </g>
     <g id="text_7">
      <!-- 0 -->
      <g style="fill:#262626;" transform="translate(59.4390625 358.98515625)scale(0.1 -0.1)">
       <use xlink:href="#ArialMT-30"/>
      </g>
     </g>
    </g>
    <g id="ytick_2">
     <g id="line2d_22">
      <path clip-path="url(#p3f1b6e89e5)" d="M 72 321.2 
L 518.4 321.2 
" style="fill:none;stroke:#ffffff;stroke-linecap:round;"/>
     </g>
     <g id="line2d_23">
      <g>
       <use style="fill:#262626;stroke:#262626;" x="72.0" xlink:href="#mc53c2da785" y="321.2"/>
      </g>
     </g>
     <g id="line2d_24">
      <g>
       <use style="fill:#262626;stroke:#262626;" x="518.4" xlink:href="#mc53c2da785" y="321.2"/>
      </g>
     </g>
     <g id="text_8">
      <!-- 1 -->
      <g style="fill:#262626;" transform="translate(59.4390625 323.78515625)scale(0.1 -0.1)">
       <use xlink:href="#ArialMT-31"/>
      </g>
     </g>
    </g>
    <g id="ytick_3">
     <g id="line2d_25">
      <path clip-path="url(#p3f1b6e89e5)" d="M 72 286 
L 518.4 286 
" style="fill:none;stroke:#ffffff;stroke-linecap:round;"/>
     </g>
     <g id="line2d_26">
      <g>
       <use style="fill:#262626;stroke:#262626;" x="72.0" xlink:href="#mc53c2da785" y="286.0"/>
      </g>
     </g>
     <g id="line2d_27">
      <g>
       <use style="fill:#262626;stroke:#262626;" x="518.4" xlink:href="#mc53c2da785" y="286.0"/>
      </g>
     </g>
     <g id="text_9">
      <!-- 2 -->
      <g style="fill:#262626;" transform="translate(59.4390625 288.58515625)scale(0.1 -0.1)">
       <use xlink:href="#ArialMT-32"/>
      </g>
     </g>
    </g>
    <g id="ytick_4">
     <g id="line2d_28">
      <path clip-path="url(#p3f1b6e89e5)" d="M 72 250.8 
L 518.4 250.8 
" style="fill:none;stroke:#ffffff;stroke-linecap:round;"/>
     </g>
     <g id="line2d_29">
      <g>
       <use style="fill:#262626;stroke:#262626;" x="72.0" xlink:href="#mc53c2da785" y="250.8"/>
      </g>
     </g>
     <g id="line2d_30">
      <g>
       <use style="fill:#262626;stroke:#262626;" x="518.4" xlink:href="#mc53c2da785" y="250.8"/>
      </g>
     </g>
     <g id="text_10">
      <!-- 3 -->
      <g style="fill:#262626;" transform="translate(59.4390625 253.38515625)scale(0.1 -0.1)">
       <use xlink:href="#ArialMT-33"/>
      </g>
     </g>
    </g>
    <g id="ytick_5">
     <g id="line2d_31">
      <path clip-path="url(#p3f1b6e89e5)" d="M 72 215.6 
L 518.4 215.6 
" style="fill:none;stroke:#ffffff;stroke-linecap:round;"/>
     </g>
     <g id="line2d_32">
      <g>
       <use style="fill:#262626;stroke:#262626;" x="72.0" xlink:href="#mc53c2da785" y="215.6"/>
      </g>
     </g>
     <g id="line2d_33">
      <g>
       <use style="fill:#262626;stroke:#262626;" x="518.4" xlink:href="#mc53c2da785" y="215.6"/>
      </g>
     </g>
     <g id="text_11">
      <!-- 4 -->
      <g style="fill:#262626;" transform="translate(59.4390625 218.18515625)scale(0.1 -0.1)">
       <use xlink:href="#ArialMT-34"/>
      </g>
     </g>
    </g>
    <g id="ytick_6">
     <g id="line2d_34">
      <path clip-path="url(#p3f1b6e89e5)" d="M 72 180.4 
L 518.4 180.4 
" style="fill:none;stroke:#ffffff;stroke-linecap:round;"/>
     </g>
     <g id="line2d_35">
      <g>
       <use style="fill:#262626;stroke:#262626;" x="72.0" xlink:href="#mc53c2da785" y="180.4"/>
      </g>
     </g>
     <g id="line2d_36">
      <g>
       <use style="fill:#262626;stroke:#262626;" x="518.4" xlink:href="#mc53c2da785" y="180.4"/>
      </g>
     </g>
     <g id="text_12">
      <!-- 5 -->
      <g style="fill:#262626;" transform="translate(59.4390625 182.98515625)scale(0.1 -0.1)">
       <use xlink:href="#ArialMT-35"/>
      </g>
     </g>
    </g>
    <g id="ytick_7">
     <g id="line2d_37">
      <path clip-path="url(#p3f1b6e89e5)" d="M 72 145.2 
L 518.4 145.2 
" style="fill:none;stroke:#ffffff;stroke-linecap:round;"/>
     </g>
     <g id="line2d_38">
      <g>
       <use style="fill:#262626;stroke:#262626;" x="72.0" xlink:href="#mc53c2da785" y="145.2"/>
      </g>
     </g>
     <g id="line2d_39">
      <g>
       <use style="fill:#262626;stroke:#262626;" x="518.4" xlink:href="#mc53c2da785" y="145.2"/>
      </g>
     </g>
     <g id="text_13">
      <!-- 6 -->
      <defs>
       <path d="M 49.75 54.046875 
L 41.015625 53.375 
Q 39.84375 58.546875 37.703125 60.890625 
Q 34.125 64.65625 28.90625 64.65625 
Q 24.703125 64.65625 21.53125 62.3125 
Q 17.390625 59.28125 14.984375 53.46875 
Q 12.59375 47.65625 12.5 36.921875 
Q 15.671875 41.75 20.265625 44.09375 
Q 24.859375 46.4375 29.890625 46.4375 
Q 38.671875 46.4375 44.84375 39.96875 
Q 51.03125 33.5 51.03125 23.25 
Q 51.03125 16.5 48.125 10.71875 
Q 45.21875 4.9375 40.140625 1.859375 
Q 35.0625 -1.21875 28.609375 -1.21875 
Q 17.625 -1.21875 10.6875 6.859375 
Q 3.765625 14.9375 3.765625 33.5 
Q 3.765625 54.25 11.421875 63.671875 
Q 18.109375 71.875 29.4375 71.875 
Q 37.890625 71.875 43.28125 67.140625 
Q 48.6875 62.40625 49.75 54.046875 
M 13.875 23.1875 
Q 13.875 18.65625 15.796875 14.5 
Q 17.71875 10.359375 21.1875 8.171875 
Q 24.65625 6 28.46875 6 
Q 34.03125 6 38.03125 10.484375 
Q 42.046875 14.984375 42.046875 22.703125 
Q 42.046875 30.125 38.078125 34.390625 
Q 34.125 38.671875 28.125 38.671875 
Q 22.171875 38.671875 18.015625 34.390625 
Q 13.875 30.125 13.875 23.1875 
" id="ArialMT-36"/>
      </defs>
      <g style="fill:#262626;" transform="translate(59.4390625 147.78515625)scale(0.1 -0.1)">
       <use xlink:href="#ArialMT-36"/>
      </g>
     </g>
    </g>
    <g id="ytick_8">
     <g id="line2d_40">
      <path clip-path="url(#p3f1b6e89e5)" d="M 72 110 
L 518.4 110 
" style="fill:none;stroke:#ffffff;stroke-linecap:round;"/>
     </g>
     <g id="line2d_41">
      <g>
       <use style="fill:#262626;stroke:#262626;" x="72.0" xlink:href="#mc53c2da785" y="110.0"/>
      </g>
     </g>
     <g id="line2d_42">
      <g>
       <use style="fill:#262626;stroke:#262626;" x="518.4" xlink:href="#mc53c2da785" y="110.0"/>
      </g>
     </g>
     <g id="text_14">
      <!-- 7 -->
      <defs>
       <path d="M 4.734375 62.203125 
L 4.734375 70.65625 
L 51.078125 70.65625 
L 51.078125 63.8125 
Q 44.234375 56.546875 37.515625 44.484375 
Q 30.8125 32.421875 27.15625 19.671875 
Q 24.515625 10.6875 23.78125 0 
L 14.75 0 
Q 14.890625 8.453125 18.0625 20.40625 
Q 21.234375 32.375 27.171875 43.484375 
Q 33.109375 54.59375 39.796875 62.203125 
z
" id="ArialMT-37"/>
      </defs>
      <g style="fill:#262626;" transform="translate(59.4390625 112.58515625)scale(0.1 -0.1)">
       <use xlink:href="#ArialMT-37"/>
      </g>
     </g>
    </g>
    <g id="ytick_9">
     <g id="line2d_43">
      <path clip-path="url(#p3f1b6e89e5)" d="M 72 74.8 
L 518.4 74.8 
" style="fill:none;stroke:#ffffff;stroke-linecap:round;"/>
     </g>
     <g id="line2d_44">
      <g>
       <use style="fill:#262626;stroke:#262626;" x="72.0" xlink:href="#mc53c2da785" y="74.8"/>
      </g>
     </g>
     <g id="line2d_45">
      <g>
       <use style="fill:#262626;stroke:#262626;" x="518.4" xlink:href="#mc53c2da785" y="74.8"/>
      </g>
     </g>
     <g id="text_15">
      <!-- 8 -->
      <defs>
       <path d="M 17.671875 38.8125 
Q 12.203125 40.828125 9.5625 44.53125 
Q 6.9375 48.25 6.9375 53.421875 
Q 6.9375 61.234375 12.546875 66.546875 
Q 18.171875 71.875 27.484375 71.875 
Q 36.859375 71.875 42.578125 66.421875 
Q 48.296875 60.984375 48.296875 53.171875 
Q 48.296875 48.1875 45.671875 44.5 
Q 43.0625 40.828125 37.75 38.8125 
Q 44.34375 36.671875 47.78125 31.875 
Q 51.21875 27.09375 51.21875 20.453125 
Q 51.21875 11.28125 44.71875 5.03125 
Q 38.234375 -1.21875 27.640625 -1.21875 
Q 17.046875 -1.21875 10.546875 5.046875 
Q 4.046875 11.328125 4.046875 20.703125 
Q 4.046875 27.6875 7.59375 32.390625 
Q 11.140625 37.109375 17.671875 38.8125 
M 15.921875 53.71875 
Q 15.921875 48.640625 19.1875 45.40625 
Q 22.46875 42.1875 27.6875 42.1875 
Q 32.765625 42.1875 36.015625 45.375 
Q 39.265625 48.578125 39.265625 53.21875 
Q 39.265625 58.0625 35.90625 61.359375 
Q 32.5625 64.65625 27.59375 64.65625 
Q 22.5625 64.65625 19.234375 61.421875 
Q 15.921875 58.203125 15.921875 53.71875 
M 13.09375 20.65625 
Q 13.09375 16.890625 14.875 13.375 
Q 16.65625 9.859375 20.171875 7.921875 
Q 23.6875 6 27.734375 6 
Q 34.03125 6 38.125 10.046875 
Q 42.234375 14.109375 42.234375 20.359375 
Q 42.234375 26.703125 38.015625 30.859375 
Q 33.796875 35.015625 27.4375 35.015625 
Q 21.234375 35.015625 17.15625 30.90625 
Q 13.09375 26.8125 13.09375 20.65625 
" id="ArialMT-38"/>
      </defs>
      <g style="fill:#262626;" transform="translate(59.4390625 77.38515625)scale(0.1 -0.1)">
       <use xlink:href="#ArialMT-38"/>
      </g>
     </g>
    </g>
    <g id="ytick_10">
     <g id="line2d_46">
      <path clip-path="url(#p3f1b6e89e5)" d="M 72 39.6 
L 518.4 39.6 
" style="fill:none;stroke:#ffffff;stroke-linecap:round;"/>
     </g>
     <g id="line2d_47">
      <g>
       <use style="fill:#262626;stroke:#262626;" x="72.0" xlink:href="#mc53c2da785" y="39.6"/>
      </g>
     </g>
     <g id="line2d_48">
      <g>
       <use style="fill:#262626;stroke:#262626;" x="518.4" xlink:href="#mc53c2da785" y="39.6"/>
      </g>
     </g>
     <g id="text_16">
      <!-- 9 -->
      <defs>
       <path d="M 5.46875 16.546875 
L 13.921875 17.328125 
Q 14.984375 11.375 18.015625 8.6875 
Q 21.046875 6 25.78125 6 
Q 29.828125 6 32.875 7.859375 
Q 35.9375 9.71875 37.890625 12.8125 
Q 39.84375 15.921875 41.15625 21.1875 
Q 42.484375 26.46875 42.484375 31.9375 
Q 42.484375 32.515625 42.4375 33.6875 
Q 39.796875 29.5 35.234375 26.875 
Q 30.671875 24.265625 25.34375 24.265625 
Q 16.453125 24.265625 10.296875 30.703125 
Q 4.15625 37.15625 4.15625 47.703125 
Q 4.15625 58.59375 10.578125 65.234375 
Q 17 71.875 26.65625 71.875 
Q 33.640625 71.875 39.421875 68.109375 
Q 45.21875 64.359375 48.21875 57.390625 
Q 51.21875 50.4375 51.21875 37.25 
Q 51.21875 23.53125 48.234375 15.40625 
Q 45.265625 7.28125 39.375 3.03125 
Q 33.5 -1.21875 25.59375 -1.21875 
Q 17.1875 -1.21875 11.859375 3.4375 
Q 6.546875 8.109375 5.46875 16.546875 
M 41.453125 48.140625 
Q 41.453125 55.71875 37.421875 60.15625 
Q 33.40625 64.59375 27.734375 64.59375 
Q 21.875 64.59375 17.53125 59.8125 
Q 13.1875 55.03125 13.1875 47.40625 
Q 13.1875 40.578125 17.3125 36.296875 
Q 21.4375 32.03125 27.484375 32.03125 
Q 33.59375 32.03125 37.515625 36.296875 
Q 41.453125 40.578125 41.453125 48.140625 
" id="ArialMT-39"/>
      </defs>
      <g style="fill:#262626;" transform="translate(59.4390625 42.18515625)scale(0.1 -0.1)">
       <use xlink:href="#ArialMT-39"/>
      </g>
     </g>
    </g>
    <g id="text_17">
     <!-- 1e7 -->
     <defs>
      <path d="M 42.09375 16.703125 
L 51.171875 15.578125 
Q 49.03125 7.625 43.21875 3.21875 
Q 37.40625 -1.171875 28.375 -1.171875 
Q 17 -1.171875 10.328125 5.828125 
Q 3.65625 12.84375 3.65625 25.484375 
Q 3.65625 38.578125 10.390625 45.796875 
Q 17.140625 53.03125 27.875 53.03125 
Q 38.28125 53.03125 44.875 45.953125 
Q 51.46875 38.875 51.46875 26.03125 
Q 51.46875 25.25 51.421875 23.6875 
L 12.75 23.6875 
Q 13.234375 15.140625 17.578125 10.59375 
Q 21.921875 6.0625 28.421875 6.0625 
Q 33.25 6.0625 36.671875 8.59375 
Q 40.09375 11.140625 42.09375 16.703125 
M 13.234375 30.90625 
L 42.1875 30.90625 
Q 41.609375 37.453125 38.875 40.71875 
Q 34.671875 45.796875 27.984375 45.796875 
Q 21.921875 45.796875 17.796875 41.75 
Q 13.671875 37.703125 13.234375 30.90625 
" id="ArialMT-65"/>
     </defs>
     <g style="fill:#262626;" transform="translate(72.0 36.6)scale(0.1 -0.1)">
      <use xlink:href="#ArialMT-31"/>
      <use x="55.615234375" xlink:href="#ArialMT-65"/>
      <use x="111.23046875" xlink:href="#ArialMT-37"/>
     </g>
    </g>
   </g>
   <g id="line2d_49">
    <path clip-path="url(#p3f1b6e89e5)" d="M 72 356.4 
L 79.16156 356.4 
L 80.355103 356.241403 
L 81.54866 356.234194 
L 82.742264 356.392791 
L 86.323013 356.4 
L 87.516571 356.169313 
L 88.710144 353.545252 
L 89.903763 353.775939 
L 91.097351 356.082806 
L 92.290909 355.924209 
L 93.484497 356.241403 
L 94.678085 356.4 
L 128.098434 356.4 
L 129.291946 355.84491 
L 130.49144 311.697239 
L 131.679123 164.728172 
L 132.872711 60.998446 
L 134.066269 61.012864 
L 135.259888 61.25076 
L 136.453522 61.120998 
L 140.034195 61.120998 
L 141.227844 60.962401 
L 142.421432 62.779059 
L 144.808578 59.275505 
L 146.002167 61.120998 
L 154.357224 61.113789 
L 155.550797 60.955192 
L 156.744385 60.962401 
L 157.943878 61.120998 
L 166.293015 61.120998 
L 167.486633 65.251732 
L 168.680206 59.708042 
L 169.873703 55.577308 
L 171.067368 60.962401 
L 172.260971 60.962401 
L 173.454544 61.120998 
L 184.203033 61.113789 
L 185.39035 60.962401 
L 186.583954 60.962401 
L 187.783844 61.120998 
L 191.358261 61.120998 
L 192.551849 64.119926 
L 194.939026 58.122071 
L 196.132599 61.120998 
L 199.719376 61.120998 
L 200.906921 60.962401 
L 202.10051 60.962401 
L 203.294098 61.120998 
L 214.036331 61.113789 
L 215.229919 60.962401 
L 216.423508 60.962401 
L 217.617096 67.580227 
L 220.004272 54.66177 
L 221.197845 61.120998 
L 228.359299 61.113789 
L 229.552917 67.169316 
L 230.746475 59.556654 
L 231.940125 53.508337 
L 233.133682 61.120998 
L 243.875916 61.120998 
L 245.07547 60.962401 
L 246.263077 60.962401 
L 247.45665 61.120998 
L 253.424637 61.120998 
L 254.618103 66.635853 
L 255.811707 59.715251 
L 257.005356 54.200397 
L 258.198868 61.113789 
L 259.392563 61.113789 
L 260.586136 60.962401 
L 261.779678 60.962401 
L 262.973221 61.120998 
L 265.360397 61.120998 
L 266.553986 68.502973 
L 268.947266 53.739023 
L 270.134735 61.120998 
L 273.718384 61.113789 
L 274.909088 60.955192 
L 276.102676 60.962401 
L 277.296249 61.120998 
L 278.489807 61.120998 
L 279.683395 59.715251 
L 280.876953 59.715251 
L 282.077835 61.120998 
L 290.425644 61.113789 
L 291.619202 67.421629 
L 294.006332 54.66177 
L 295.205826 61.120998 
L 303.555054 61.120998 
L 304.748657 61.322849 
L 305.9422 61.322849 
L 307.135773 60.962401 
L 308.329361 60.962401 
L 309.522934 61.120998 
L 315.490829 61.120998 
L 316.684448 65.96542 
L 319.071609 56.269368 
L 320.265198 61.113789 
L 321.464615 60.962401 
L 322.652374 60.962401 
L 323.845947 61.120998 
L 327.432785 61.120998 
L 328.620285 65.482419 
L 329.813843 59.715251 
L 331.007416 55.35383 
L 332.200989 61.120998 
L 334.588165 61.113789 
L 335.781754 60.962401 
L 336.975342 60.962401 
L 338.168869 61.120998 
L 340.556107 61.120998 
L 341.74968 62.043745 
L 342.943253 62.043745 
L 344.136826 61.120998 
L 351.298325 61.120998 
L 352.497955 60.962401 
L 353.691574 68.11369 
L 356.072693 54.431084 
L 357.266251 61.120998 
L 365.621307 61.120998 
L 366.814926 60.962401 
L 368.008514 60.962401 
L 369.202087 61.120998 
L 376.363571 61.120998 
L 377.557114 65.705897 
L 378.750702 59.938729 
L 379.953125 55.123144 
L 381.137924 60.890312 
L 385.918304 61.120998 
L 396.654465 61.120998 
L 397.848068 60.962401 
L 399.041702 60.962401 
L 400.235245 61.120998 
L 401.428818 61.120998 
L 402.622375 59.715251 
L 403.815979 59.715251 
L 405.009583 61.120998 
L 410.977463 61.120998 
L 412.171066 60.962401 
L 413.364639 60.962401 
L 414.558228 68.272287 
L 415.751831 69.195034 
L 416.945419 55.35383 
L 418.138931 54.431084 
L 419.332565 61.120998 
L 426.494034 61.120998 
L 427.687637 59.556654 
L 428.881241 59.556654 
L 430.074814 61.120998 
L 438.435959 61.120998 
L 439.623459 63.889239 
L 442.010574 58.194161 
L 443.204208 60.962401 
L 444.397781 61.120998 
L 450.365692 61.113789 
L 451.55925 59.715251 
L 452.752808 67.789286 
L 453.946426 61.120998 
L 455.14003 53.046963 
L 456.333633 60.962401 
L 457.527222 60.962401 
L 458.720795 61.120998 
L 470.656647 61.120998 
L 471.856323 60.962401 
L 473.043762 60.962401 
L 474.23735 61.120998 
L 475.430939 61.120998 
L 476.624573 60.154998 
L 477.818115 60.616371 
L 479.017792 61.575163 
L 480.211258 61.113789 
L 486.173172 61.120998 
L 487.36676 60.962401 
L 488.560318 66.729569 
L 489.753967 65.042673 
L 490.947495 55.35383 
L 492.141113 57.199324 
L 493.334717 61.113789 
L 500.49617 61.120998 
L 501.689804 116.601155 
L 502.889267 261.457997 
L 504.076904 353.617341 
L 505.270523 356.4 
L 518.399994 356.4 
L 518.399994 356.4 
" style="fill:none;stroke:#4c72b0;stroke-linecap:round;stroke-width:1.75;"/>
   </g>
   <g id="patch_3">
    <path d="M 72 39.6 
L 518.399994 39.6 
" style="fill:none;"/>
   </g>
   <g id="patch_4">
    <path d="M 518.4 356.4 
L 518.4 39.6 
" style="fill:none;"/>
   </g>
   <g id="patch_5">
    <path d="M 72 356.4 
L 518.399994 356.4 
" style="fill:none;"/>
   </g>
   <g id="patch_6">
    <path d="M 72 356.4 
L 72 39.6 
" style="fill:none;"/>
   </g>
   <g id="legend_1">
    <g id="line2d_50">
     <path d="M 455.83125 52.257812 
L 475.83125 52.257812 
" style="fill:none;stroke:#4c72b0;stroke-linecap:round;stroke-width:1.75;"/>
    </g>
    <g id="line2d_51"/>
    <g id="text_18">
     <!-- 06ef.r -->
     <defs>
      <path d="M 8.6875 0 
L 8.6875 45.015625 
L 0.921875 45.015625 
L 0.921875 51.859375 
L 8.6875 51.859375 
L 8.6875 57.375 
Q 8.6875 62.59375 9.625 65.140625 
Q 10.890625 68.5625 14.078125 70.671875 
Q 17.28125 72.796875 23.046875 72.796875 
Q 26.765625 72.796875 31.25 71.921875 
L 29.9375 64.265625 
Q 27.203125 64.75 24.75 64.75 
Q 20.75 64.75 19.09375 63.03125 
Q 17.4375 61.328125 17.4375 56.640625 
L 17.4375 51.859375 
L 27.546875 51.859375 
L 27.546875 45.015625 
L 17.4375 45.015625 
L 17.4375 0 
z
" id="ArialMT-66"/>
      <path d="M 6.5 0 
L 6.5 51.859375 
L 14.40625 51.859375 
L 14.40625 44 
Q 17.4375 49.515625 20 51.265625 
Q 22.5625 53.03125 25.640625 53.03125 
Q 30.078125 53.03125 34.671875 50.203125 
L 31.640625 42.046875 
Q 28.421875 43.953125 25.203125 43.953125 
Q 22.3125 43.953125 20.015625 42.21875 
Q 17.71875 40.484375 16.75 37.40625 
Q 15.28125 32.71875 15.28125 27.15625 
L 15.28125 0 
z
" id="ArialMT-72"/>
     </defs>
     <g style="fill:#262626;" transform="translate(483.83125 55.7578125)scale(0.1 -0.1)">
      <use xlink:href="#ArialMT-30"/>
      <use x="55.615234375" xlink:href="#ArialMT-36"/>
      <use x="111.23046875" xlink:href="#ArialMT-65"/>
      <use x="166.845703125" xlink:href="#ArialMT-66"/>
      <use x="194.62890625" xlink:href="#ArialMT-2e"/>
      <use x="222.412109375" xlink:href="#ArialMT-72"/>
     </g>
    </g>
   </g>
  </g>
 </g>
 <defs>
  <clipPath id="p3f1b6e89e5">
   <rect height="316.8" width="446.4" x="72.0" y="39.6"/>
  </clipPath>
 </defs>
</svg>
