<?xml version="1.0" encoding="utf-8" standalone="no"?>
<!DOCTYPE svg PUBLIC "-//W3C//DTD SVG 1.1//EN"
  "http://www.w3.org/Graphics/SVG/1.1/DTD/svg11.dtd">
<!-- Created with matplotlib (http://matplotlib.org/) -->
<svg height="396pt" version="1.1" viewBox="0 0 576 396" width="576pt" xmlns="http://www.w3.org/2000/svg" xmlns:xlink="http://www.w3.org/1999/xlink">
 <defs>
  <style type="text/css">
*{stroke-linecap:butt;stroke-linejoin:round;stroke-miterlimit:100000;}
  </style>
 </defs>
 <g id="figure_1">
  <g id="patch_1">
   <path d="M 0 396 
L 576 396 
L 576 0 
L 0 0 
z
" style="fill:#ffffff;"/>
  </g>
  <g id="axes_1">
   <g id="patch_2">
    <path d="M 72 356.4 
L 518.4 356.4 
L 518.4 39.6 
L 72 39.6 
z
" style="fill:#eaeaf2;"/>
   </g>
   <g id="matplotlib.axis_1">
    <g id="xtick_1">
     <g id="line2d_1">
      <path clip-path="url(#p1fed82349c)" d="M 129.864578 356.4 
L 129.864578 39.6 
" style="fill:none;stroke:#ffffff;stroke-linecap:round;"/>
     </g>
     <g id="line2d_2">
      <defs>
       <path d="M 0 0 
L 0 0 
" id="m55f5eba842" style="stroke:#262626;"/>
      </defs>
      <g>
       <use style="fill:#262626;stroke:#262626;" x="129.864578247" xlink:href="#m55f5eba842" y="356.4"/>
      </g>
     </g>
     <g id="line2d_3">
      <g>
       <use style="fill:#262626;stroke:#262626;" x="129.864578247" xlink:href="#m55f5eba842" y="39.6"/>
      </g>
     </g>
     <g id="text_1">
      <!-- 13:10:00.000000 -->
      <defs>
       <path d="M 4.15625 35.296875 
Q 4.15625 48 6.765625 55.734375 
Q 9.375 63.484375 14.515625 67.671875 
Q 19.671875 71.875 27.484375 71.875 
Q 33.25 71.875 37.59375 69.546875 
Q 41.9375 67.234375 44.765625 62.859375 
Q 47.609375 58.5 49.21875 52.21875 
Q 50.828125 45.953125 50.828125 35.296875 
Q 50.828125 22.703125 48.234375 14.96875 
Q 45.65625 7.234375 40.5 3 
Q 35.359375 -1.21875 27.484375 -1.21875 
Q 17.140625 -1.21875 11.234375 6.203125 
Q 4.15625 15.140625 4.15625 35.296875 
M 13.1875 35.296875 
Q 13.1875 17.671875 17.3125 11.828125 
Q 21.4375 6 27.484375 6 
Q 33.546875 6 37.671875 11.859375 
Q 41.796875 17.71875 41.796875 35.296875 
Q 41.796875 52.984375 37.671875 58.78125 
Q 33.546875 64.59375 27.390625 64.59375 
Q 21.34375 64.59375 17.71875 59.46875 
Q 13.1875 52.9375 13.1875 35.296875 
" id="ArialMT-30"/>
       <path d="M 37.25 0 
L 28.46875 0 
L 28.46875 56 
Q 25.296875 52.984375 20.140625 49.953125 
Q 14.984375 46.921875 10.890625 45.40625 
L 10.890625 53.90625 
Q 18.265625 57.375 23.78125 62.296875 
Q 29.296875 67.234375 31.59375 71.875 
L 37.25 71.875 
z
" id="ArialMT-31"/>
       <path d="M 9.078125 0 
L 9.078125 10.015625 
L 19.09375 10.015625 
L 19.09375 0 
z
" id="ArialMT-2e"/>
       <path d="M 4.203125 18.890625 
L 12.984375 20.0625 
Q 14.5 12.59375 18.140625 9.296875 
Q 21.78125 6 27 6 
Q 33.203125 6 37.46875 10.296875 
Q 41.75 14.59375 41.75 20.953125 
Q 41.75 27 37.796875 30.921875 
Q 33.84375 34.859375 27.734375 34.859375 
Q 25.25 34.859375 21.53125 33.890625 
L 22.515625 41.609375 
Q 23.390625 41.5 23.921875 41.5 
Q 29.546875 41.5 34.03125 44.421875 
Q 38.53125 47.359375 38.53125 53.46875 
Q 38.53125 58.296875 35.25 61.46875 
Q 31.984375 64.65625 26.8125 64.65625 
Q 21.6875 64.65625 18.265625 61.421875 
Q 14.84375 58.203125 13.875 51.765625 
L 5.078125 53.328125 
Q 6.6875 62.15625 12.390625 67.015625 
Q 18.109375 71.875 26.609375 71.875 
Q 32.46875 71.875 37.390625 69.359375 
Q 42.328125 66.84375 44.9375 62.5 
Q 47.5625 58.15625 47.5625 53.265625 
Q 47.5625 48.640625 45.0625 44.828125 
Q 42.578125 41.015625 37.703125 38.765625 
Q 44.046875 37.3125 47.5625 32.6875 
Q 51.078125 28.078125 51.078125 21.140625 
Q 51.078125 11.765625 44.234375 5.25 
Q 37.40625 -1.265625 26.953125 -1.265625 
Q 17.53125 -1.265625 11.296875 4.34375 
Q 5.078125 9.96875 4.203125 18.890625 
" id="ArialMT-33"/>
       <path d="M 9.03125 41.84375 
L 9.03125 51.859375 
L 19.046875 51.859375 
L 19.046875 41.84375 
z
M 9.03125 0 
L 9.03125 10.015625 
L 19.046875 10.015625 
L 19.046875 0 
z
" id="ArialMT-3a"/>
      </defs>
      <g style="fill:#262626;" transform="translate(92.3317657471 370.5578125)scale(0.1 -0.1)">
       <use xlink:href="#ArialMT-31"/>
       <use x="55.615234375" xlink:href="#ArialMT-33"/>
       <use x="111.23046875" xlink:href="#ArialMT-3a"/>
       <use x="139.013671875" xlink:href="#ArialMT-31"/>
       <use x="194.62890625" xlink:href="#ArialMT-30"/>
       <use x="250.244140625" xlink:href="#ArialMT-3a"/>
       <use x="278.02734375" xlink:href="#ArialMT-30"/>
       <use x="333.642578125" xlink:href="#ArialMT-30"/>
       <use x="389.2578125" xlink:href="#ArialMT-2e"/>
       <use x="417.041015625" xlink:href="#ArialMT-30"/>
       <use x="472.65625" xlink:href="#ArialMT-30"/>
       <use x="528.271484375" xlink:href="#ArialMT-30"/>
       <use x="583.88671875" xlink:href="#ArialMT-30"/>
       <use x="639.501953125" xlink:href="#ArialMT-30"/>
       <use x="695.1171875" xlink:href="#ArialMT-30"/>
      </g>
     </g>
    </g>
    <g id="xtick_2">
     <g id="line2d_4">
      <path clip-path="url(#p1fed82349c)" d="M 201.479538 356.4 
L 201.479538 39.6 
" style="fill:none;stroke:#ffffff;stroke-linecap:round;"/>
     </g>
     <g id="line2d_5">
      <g>
       <use style="fill:#262626;stroke:#262626;" x="201.479537964" xlink:href="#m55f5eba842" y="356.4"/>
      </g>
     </g>
     <g id="line2d_6">
      <g>
       <use style="fill:#262626;stroke:#262626;" x="201.479537964" xlink:href="#m55f5eba842" y="39.6"/>
      </g>
     </g>
     <g id="text_2">
      <!-- 13:11:00.000000 -->
      <g style="fill:#262626;" transform="translate(163.952194214 370.5578125)scale(0.1 -0.1)">
       <use xlink:href="#ArialMT-31"/>
       <use x="55.615234375" xlink:href="#ArialMT-33"/>
       <use x="111.23046875" xlink:href="#ArialMT-3a"/>
       <use x="139.013671875" xlink:href="#ArialMT-31"/>
       <use x="194.51953125" xlink:href="#ArialMT-31"/>
       <use x="250.134765625" xlink:href="#ArialMT-3a"/>
       <use x="277.91796875" xlink:href="#ArialMT-30"/>
       <use x="333.533203125" xlink:href="#ArialMT-30"/>
       <use x="389.1484375" xlink:href="#ArialMT-2e"/>
       <use x="416.931640625" xlink:href="#ArialMT-30"/>
       <use x="472.546875" xlink:href="#ArialMT-30"/>
       <use x="528.162109375" xlink:href="#ArialMT-30"/>
       <use x="583.77734375" xlink:href="#ArialMT-30"/>
       <use x="639.392578125" xlink:href="#ArialMT-30"/>
       <use x="695.0078125" xlink:href="#ArialMT-30"/>
      </g>
     </g>
    </g>
    <g id="xtick_3">
     <g id="line2d_7">
      <path clip-path="url(#p1fed82349c)" d="M 273.094498 356.4 
L 273.094498 39.6 
" style="fill:none;stroke:#ffffff;stroke-linecap:round;"/>
     </g>
     <g id="line2d_8">
      <g>
       <use style="fill:#262626;stroke:#262626;" x="273.094497681" xlink:href="#m55f5eba842" y="356.4"/>
      </g>
     </g>
     <g id="line2d_9">
      <g>
       <use style="fill:#262626;stroke:#262626;" x="273.094497681" xlink:href="#m55f5eba842" y="39.6"/>
      </g>
     </g>
     <g id="text_3">
      <!-- 13:12:00.000000 -->
      <defs>
       <path d="M 50.34375 8.453125 
L 50.34375 0 
L 3.03125 0 
Q 2.9375 3.171875 4.046875 6.109375 
Q 5.859375 10.9375 9.828125 15.625 
Q 13.8125 20.3125 21.34375 26.46875 
Q 33.015625 36.03125 37.109375 41.625 
Q 41.21875 47.21875 41.21875 52.203125 
Q 41.21875 57.421875 37.46875 61 
Q 33.734375 64.59375 27.734375 64.59375 
Q 21.390625 64.59375 17.578125 60.78125 
Q 13.765625 56.984375 13.71875 50.25 
L 4.6875 51.171875 
Q 5.609375 61.28125 11.65625 66.578125 
Q 17.71875 71.875 27.9375 71.875 
Q 38.234375 71.875 44.234375 66.15625 
Q 50.25 60.453125 50.25 52 
Q 50.25 47.703125 48.484375 43.546875 
Q 46.734375 39.40625 42.65625 34.8125 
Q 38.578125 30.21875 29.109375 22.21875 
Q 21.1875 15.578125 18.9375 13.203125 
Q 16.703125 10.84375 15.234375 8.453125 
z
" id="ArialMT-32"/>
      </defs>
      <g style="fill:#262626;" transform="translate(235.561685181 370.5578125)scale(0.1 -0.1)">
       <use xlink:href="#ArialMT-31"/>
       <use x="55.615234375" xlink:href="#ArialMT-33"/>
       <use x="111.23046875" xlink:href="#ArialMT-3a"/>
       <use x="139.013671875" xlink:href="#ArialMT-31"/>
       <use x="194.62890625" xlink:href="#ArialMT-32"/>
       <use x="250.244140625" xlink:href="#ArialMT-3a"/>
       <use x="278.02734375" xlink:href="#ArialMT-30"/>
       <use x="333.642578125" xlink:href="#ArialMT-30"/>
       <use x="389.2578125" xlink:href="#ArialMT-2e"/>
       <use x="417.041015625" xlink:href="#ArialMT-30"/>
       <use x="472.65625" xlink:href="#ArialMT-30"/>
       <use x="528.271484375" xlink:href="#ArialMT-30"/>
       <use x="583.88671875" xlink:href="#ArialMT-30"/>
       <use x="639.501953125" xlink:href="#ArialMT-30"/>
       <use x="695.1171875" xlink:href="#ArialMT-30"/>
      </g>
     </g>
    </g>
    <g id="xtick_4">
     <g id="line2d_10">
      <path clip-path="url(#p1fed82349c)" d="M 344.709457 356.4 
L 344.709457 39.6 
" style="fill:none;stroke:#ffffff;stroke-linecap:round;"/>
     </g>
     <g id="line2d_11">
      <g>
       <use style="fill:#262626;stroke:#262626;" x="344.709457397" xlink:href="#m55f5eba842" y="356.4"/>
      </g>
     </g>
     <g id="line2d_12">
      <g>
       <use style="fill:#262626;stroke:#262626;" x="344.709457397" xlink:href="#m55f5eba842" y="39.6"/>
      </g>
     </g>
     <g id="text_4">
      <!-- 13:13:00.000000 -->
      <g style="fill:#262626;" transform="translate(307.176644897 370.5578125)scale(0.1 -0.1)">
       <use xlink:href="#ArialMT-31"/>
       <use x="55.615234375" xlink:href="#ArialMT-33"/>
       <use x="111.23046875" xlink:href="#ArialMT-3a"/>
       <use x="139.013671875" xlink:href="#ArialMT-31"/>
       <use x="194.62890625" xlink:href="#ArialMT-33"/>
       <use x="250.244140625" xlink:href="#ArialMT-3a"/>
       <use x="278.02734375" xlink:href="#ArialMT-30"/>
       <use x="333.642578125" xlink:href="#ArialMT-30"/>
       <use x="389.2578125" xlink:href="#ArialMT-2e"/>
       <use x="417.041015625" xlink:href="#ArialMT-30"/>
       <use x="472.65625" xlink:href="#ArialMT-30"/>
       <use x="528.271484375" xlink:href="#ArialMT-30"/>
       <use x="583.88671875" xlink:href="#ArialMT-30"/>
       <use x="639.501953125" xlink:href="#ArialMT-30"/>
       <use x="695.1171875" xlink:href="#ArialMT-30"/>
      </g>
     </g>
    </g>
    <g id="xtick_5">
     <g id="line2d_13">
      <path clip-path="url(#p1fed82349c)" d="M 416.324417 356.4 
L 416.324417 39.6 
" style="fill:none;stroke:#ffffff;stroke-linecap:round;"/>
     </g>
     <g id="line2d_14">
      <g>
       <use style="fill:#262626;stroke:#262626;" x="416.324417114" xlink:href="#m55f5eba842" y="356.4"/>
      </g>
     </g>
     <g id="line2d_15">
      <g>
       <use style="fill:#262626;stroke:#262626;" x="416.324417114" xlink:href="#m55f5eba842" y="39.6"/>
      </g>
     </g>
     <g id="text_5">
      <!-- 13:14:00.000000 -->
      <defs>
       <path d="M 32.328125 0 
L 32.328125 17.140625 
L 1.265625 17.140625 
L 1.265625 25.203125 
L 33.9375 71.578125 
L 41.109375 71.578125 
L 41.109375 25.203125 
L 50.78125 25.203125 
L 50.78125 17.140625 
L 41.109375 17.140625 
L 41.109375 0 
z
M 32.328125 25.203125 
L 32.328125 57.46875 
L 9.90625 25.203125 
z
" id="ArialMT-34"/>
      </defs>
      <g style="fill:#262626;" transform="translate(378.791604614 370.5578125)scale(0.1 -0.1)">
       <use xlink:href="#ArialMT-31"/>
       <use x="55.615234375" xlink:href="#ArialMT-33"/>
       <use x="111.23046875" xlink:href="#ArialMT-3a"/>
       <use x="139.013671875" xlink:href="#ArialMT-31"/>
       <use x="194.62890625" xlink:href="#ArialMT-34"/>
       <use x="250.244140625" xlink:href="#ArialMT-3a"/>
       <use x="278.02734375" xlink:href="#ArialMT-30"/>
       <use x="333.642578125" xlink:href="#ArialMT-30"/>
       <use x="389.2578125" xlink:href="#ArialMT-2e"/>
       <use x="417.041015625" xlink:href="#ArialMT-30"/>
       <use x="472.65625" xlink:href="#ArialMT-30"/>
       <use x="528.271484375" xlink:href="#ArialMT-30"/>
       <use x="583.88671875" xlink:href="#ArialMT-30"/>
       <use x="639.501953125" xlink:href="#ArialMT-30"/>
       <use x="695.1171875" xlink:href="#ArialMT-30"/>
      </g>
     </g>
    </g>
    <g id="xtick_6">
     <g id="line2d_16">
      <path clip-path="url(#p1fed82349c)" d="M 487.939392 356.4 
L 487.939392 39.6 
" style="fill:none;stroke:#ffffff;stroke-linecap:round;"/>
     </g>
     <g id="line2d_17">
      <g>
       <use style="fill:#262626;stroke:#262626;" x="487.93939209" xlink:href="#m55f5eba842" y="356.4"/>
      </g>
     </g>
     <g id="line2d_18">
      <g>
       <use style="fill:#262626;stroke:#262626;" x="487.93939209" xlink:href="#m55f5eba842" y="39.6"/>
      </g>
     </g>
     <g id="text_6">
      <!-- 13:15:00.000000 -->
      <defs>
       <path d="M 4.15625 18.75 
L 13.375 19.53125 
Q 14.40625 12.796875 18.140625 9.390625 
Q 21.875 6 27.15625 6 
Q 33.5 6 37.890625 10.78125 
Q 42.28125 15.578125 42.28125 23.484375 
Q 42.28125 31 38.0625 35.34375 
Q 33.84375 39.703125 27 39.703125 
Q 22.75 39.703125 19.328125 37.765625 
Q 15.921875 35.84375 13.96875 32.765625 
L 5.71875 33.84375 
L 12.640625 70.609375 
L 48.25 70.609375 
L 48.25 62.203125 
L 19.671875 62.203125 
L 15.828125 42.96875 
Q 22.265625 47.46875 29.34375 47.46875 
Q 38.71875 47.46875 45.15625 40.96875 
Q 51.609375 34.46875 51.609375 24.265625 
Q 51.609375 14.546875 45.953125 7.46875 
Q 39.0625 -1.21875 27.15625 -1.21875 
Q 17.390625 -1.21875 11.203125 4.25 
Q 5.03125 9.71875 4.15625 18.75 
" id="ArialMT-35"/>
      </defs>
      <g style="fill:#262626;" transform="translate(450.40657959 370.5578125)scale(0.1 -0.1)">
       <use xlink:href="#ArialMT-31"/>
       <use x="55.615234375" xlink:href="#ArialMT-33"/>
       <use x="111.23046875" xlink:href="#ArialMT-3a"/>
       <use x="139.013671875" xlink:href="#ArialMT-31"/>
       <use x="194.62890625" xlink:href="#ArialMT-35"/>
       <use x="250.244140625" xlink:href="#ArialMT-3a"/>
       <use x="278.02734375" xlink:href="#ArialMT-30"/>
       <use x="333.642578125" xlink:href="#ArialMT-30"/>
       <use x="389.2578125" xlink:href="#ArialMT-2e"/>
       <use x="417.041015625" xlink:href="#ArialMT-30"/>
       <use x="472.65625" xlink:href="#ArialMT-30"/>
       <use x="528.271484375" xlink:href="#ArialMT-30"/>
       <use x="583.88671875" xlink:href="#ArialMT-30"/>
       <use x="639.501953125" xlink:href="#ArialMT-30"/>
       <use x="695.1171875" xlink:href="#ArialMT-30"/>
      </g>
     </g>
    </g>
   </g>
   <g id="matplotlib.axis_2">
    <g id="ytick_1">
     <g id="line2d_19">
      <path clip-path="url(#p1fed82349c)" d="M 72 356.4 
L 518.4 356.4 
" style="fill:none;stroke:#ffffff;stroke-linecap:round;"/>
     </g>
     <g id="line2d_20">
      <g>
       <use style="fill:#262626;stroke:#262626;" x="72.0" xlink:href="#m55f5eba842" y="356.4"/>
      </g>
     </g>
     <g id="line2d_21">
      <g>
       <use style="fill:#262626;stroke:#262626;" x="518.4" xlink:href="#m55f5eba842" y="356.4"/>
      </g>
     </g>
     <g id="text_7">
      <!-- 0.0 -->
      <g style="fill:#262626;" transform="translate(51.1 358.98515625)scale(0.1 -0.1)">
       <use xlink:href="#ArialMT-30"/>
       <use x="55.615234375" xlink:href="#ArialMT-2e"/>
       <use x="83.3984375" xlink:href="#ArialMT-30"/>
      </g>
     </g>
    </g>
    <g id="ytick_2">
     <g id="line2d_22">
      <path clip-path="url(#p1fed82349c)" d="M 72 316.8 
L 518.4 316.8 
" style="fill:none;stroke:#ffffff;stroke-linecap:round;"/>
     </g>
     <g id="line2d_23">
      <g>
       <use style="fill:#262626;stroke:#262626;" x="72.0" xlink:href="#m55f5eba842" y="316.8"/>
      </g>
     </g>
     <g id="line2d_24">
      <g>
       <use style="fill:#262626;stroke:#262626;" x="518.4" xlink:href="#m55f5eba842" y="316.8"/>
      </g>
     </g>
     <g id="text_8">
      <!-- 0.2 -->
      <g style="fill:#262626;" transform="translate(51.1 319.38515625)scale(0.1 -0.1)">
       <use xlink:href="#ArialMT-30"/>
       <use x="55.615234375" xlink:href="#ArialMT-2e"/>
       <use x="83.3984375" xlink:href="#ArialMT-32"/>
      </g>
     </g>
    </g>
    <g id="ytick_3">
     <g id="line2d_25">
      <path clip-path="url(#p1fed82349c)" d="M 72 277.2 
L 518.4 277.2 
" style="fill:none;stroke:#ffffff;stroke-linecap:round;"/>
     </g>
     <g id="line2d_26">
      <g>
       <use style="fill:#262626;stroke:#262626;" x="72.0" xlink:href="#m55f5eba842" y="277.2"/>
      </g>
     </g>
     <g id="line2d_27">
      <g>
       <use style="fill:#262626;stroke:#262626;" x="518.4" xlink:href="#m55f5eba842" y="277.2"/>
      </g>
     </g>
     <g id="text_9">
      <!-- 0.4 -->
      <g style="fill:#262626;" transform="translate(51.1 279.78515625)scale(0.1 -0.1)">
       <use xlink:href="#ArialMT-30"/>
       <use x="55.615234375" xlink:href="#ArialMT-2e"/>
       <use x="83.3984375" xlink:href="#ArialMT-34"/>
      </g>
     </g>
    </g>
    <g id="ytick_4">
     <g id="line2d_28">
      <path clip-path="url(#p1fed82349c)" d="M 72 237.6 
L 518.4 237.6 
" style="fill:none;stroke:#ffffff;stroke-linecap:round;"/>
     </g>
     <g id="line2d_29">
      <g>
       <use style="fill:#262626;stroke:#262626;" x="72.0" xlink:href="#m55f5eba842" y="237.6"/>
      </g>
     </g>
     <g id="line2d_30">
      <g>
       <use style="fill:#262626;stroke:#262626;" x="518.4" xlink:href="#m55f5eba842" y="237.6"/>
      </g>
     </g>
     <g id="text_10">
      <!-- 0.6 -->
      <defs>
       <path d="M 49.75 54.046875 
L 41.015625 53.375 
Q 39.84375 58.546875 37.703125 60.890625 
Q 34.125 64.65625 28.90625 64.65625 
Q 24.703125 64.65625 21.53125 62.3125 
Q 17.390625 59.28125 14.984375 53.46875 
Q 12.59375 47.65625 12.5 36.921875 
Q 15.671875 41.75 20.265625 44.09375 
Q 24.859375 46.4375 29.890625 46.4375 
Q 38.671875 46.4375 44.84375 39.96875 
Q 51.03125 33.5 51.03125 23.25 
Q 51.03125 16.5 48.125 10.71875 
Q 45.21875 4.9375 40.140625 1.859375 
Q 35.0625 -1.21875 28.609375 -1.21875 
Q 17.625 -1.21875 10.6875 6.859375 
Q 3.765625 14.9375 3.765625 33.5 
Q 3.765625 54.25 11.421875 63.671875 
Q 18.109375 71.875 29.4375 71.875 
Q 37.890625 71.875 43.28125 67.140625 
Q 48.6875 62.40625 49.75 54.046875 
M 13.875 23.1875 
Q 13.875 18.65625 15.796875 14.5 
Q 17.71875 10.359375 21.1875 8.171875 
Q 24.65625 6 28.46875 6 
Q 34.03125 6 38.03125 10.484375 
Q 42.046875 14.984375 42.046875 22.703125 
Q 42.046875 30.125 38.078125 34.390625 
Q 34.125 38.671875 28.125 38.671875 
Q 22.171875 38.671875 18.015625 34.390625 
Q 13.875 30.125 13.875 23.1875 
" id="ArialMT-36"/>
      </defs>
      <g style="fill:#262626;" transform="translate(51.1 240.18515625)scale(0.1 -0.1)">
       <use xlink:href="#ArialMT-30"/>
       <use x="55.615234375" xlink:href="#ArialMT-2e"/>
       <use x="83.3984375" xlink:href="#ArialMT-36"/>
      </g>
     </g>
    </g>
    <g id="ytick_5">
     <g id="line2d_31">
      <path clip-path="url(#p1fed82349c)" d="M 72 198 
L 518.4 198 
" style="fill:none;stroke:#ffffff;stroke-linecap:round;"/>
     </g>
     <g id="line2d_32">
      <g>
       <use style="fill:#262626;stroke:#262626;" x="72.0" xlink:href="#m55f5eba842" y="198.0"/>
      </g>
     </g>
     <g id="line2d_33">
      <g>
       <use style="fill:#262626;stroke:#262626;" x="518.4" xlink:href="#m55f5eba842" y="198.0"/>
      </g>
     </g>
     <g id="text_11">
      <!-- 0.8 -->
      <defs>
       <path d="M 17.671875 38.8125 
Q 12.203125 40.828125 9.5625 44.53125 
Q 6.9375 48.25 6.9375 53.421875 
Q 6.9375 61.234375 12.546875 66.546875 
Q 18.171875 71.875 27.484375 71.875 
Q 36.859375 71.875 42.578125 66.421875 
Q 48.296875 60.984375 48.296875 53.171875 
Q 48.296875 48.1875 45.671875 44.5 
Q 43.0625 40.828125 37.75 38.8125 
Q 44.34375 36.671875 47.78125 31.875 
Q 51.21875 27.09375 51.21875 20.453125 
Q 51.21875 11.28125 44.71875 5.03125 
Q 38.234375 -1.21875 27.640625 -1.21875 
Q 17.046875 -1.21875 10.546875 5.046875 
Q 4.046875 11.328125 4.046875 20.703125 
Q 4.046875 27.6875 7.59375 32.390625 
Q 11.140625 37.109375 17.671875 38.8125 
M 15.921875 53.71875 
Q 15.921875 48.640625 19.1875 45.40625 
Q 22.46875 42.1875 27.6875 42.1875 
Q 32.765625 42.1875 36.015625 45.375 
Q 39.265625 48.578125 39.265625 53.21875 
Q 39.265625 58.0625 35.90625 61.359375 
Q 32.5625 64.65625 27.59375 64.65625 
Q 22.5625 64.65625 19.234375 61.421875 
Q 15.921875 58.203125 15.921875 53.71875 
M 13.09375 20.65625 
Q 13.09375 16.890625 14.875 13.375 
Q 16.65625 9.859375 20.171875 7.921875 
Q 23.6875 6 27.734375 6 
Q 34.03125 6 38.125 10.046875 
Q 42.234375 14.109375 42.234375 20.359375 
Q 42.234375 26.703125 38.015625 30.859375 
Q 33.796875 35.015625 27.4375 35.015625 
Q 21.234375 35.015625 17.15625 30.90625 
Q 13.09375 26.8125 13.09375 20.65625 
" id="ArialMT-38"/>
      </defs>
      <g style="fill:#262626;" transform="translate(51.1 200.58515625)scale(0.1 -0.1)">
       <use xlink:href="#ArialMT-30"/>
       <use x="55.615234375" xlink:href="#ArialMT-2e"/>
       <use x="83.3984375" xlink:href="#ArialMT-38"/>
      </g>
     </g>
    </g>
    <g id="ytick_6">
     <g id="line2d_34">
      <path clip-path="url(#p1fed82349c)" d="M 72 158.4 
L 518.4 158.4 
" style="fill:none;stroke:#ffffff;stroke-linecap:round;"/>
     </g>
     <g id="line2d_35">
      <g>
       <use style="fill:#262626;stroke:#262626;" x="72.0" xlink:href="#m55f5eba842" y="158.4"/>
      </g>
     </g>
     <g id="line2d_36">
      <g>
       <use style="fill:#262626;stroke:#262626;" x="518.4" xlink:href="#m55f5eba842" y="158.4"/>
      </g>
     </g>
     <g id="text_12">
      <!-- 1.0 -->
      <g style="fill:#262626;" transform="translate(51.1 160.98515625)scale(0.1 -0.1)">
       <use xlink:href="#ArialMT-31"/>
       <use x="55.615234375" xlink:href="#ArialMT-2e"/>
       <use x="83.3984375" xlink:href="#ArialMT-30"/>
      </g>
     </g>
    </g>
    <g id="ytick_7">
     <g id="line2d_37">
      <path clip-path="url(#p1fed82349c)" d="M 72 118.8 
L 518.4 118.8 
" style="fill:none;stroke:#ffffff;stroke-linecap:round;"/>
     </g>
     <g id="line2d_38">
      <g>
       <use style="fill:#262626;stroke:#262626;" x="72.0" xlink:href="#m55f5eba842" y="118.8"/>
      </g>
     </g>
     <g id="line2d_39">
      <g>
       <use style="fill:#262626;stroke:#262626;" x="518.4" xlink:href="#m55f5eba842" y="118.8"/>
      </g>
     </g>
     <g id="text_13">
      <!-- 1.2 -->
      <g style="fill:#262626;" transform="translate(51.1 121.38515625)scale(0.1 -0.1)">
       <use xlink:href="#ArialMT-31"/>
       <use x="55.615234375" xlink:href="#ArialMT-2e"/>
       <use x="83.3984375" xlink:href="#ArialMT-32"/>
      </g>
     </g>
    </g>
    <g id="ytick_8">
     <g id="line2d_40">
      <path clip-path="url(#p1fed82349c)" d="M 72 79.2 
L 518.4 79.2 
" style="fill:none;stroke:#ffffff;stroke-linecap:round;"/>
     </g>
     <g id="line2d_41">
      <g>
       <use style="fill:#262626;stroke:#262626;" x="72.0" xlink:href="#m55f5eba842" y="79.2"/>
      </g>
     </g>
     <g id="line2d_42">
      <g>
       <use style="fill:#262626;stroke:#262626;" x="518.4" xlink:href="#m55f5eba842" y="79.2"/>
      </g>
     </g>
     <g id="text_14">
      <!-- 1.4 -->
      <g style="fill:#262626;" transform="translate(51.1 81.78515625)scale(0.1 -0.1)">
       <use xlink:href="#ArialMT-31"/>
       <use x="55.615234375" xlink:href="#ArialMT-2e"/>
       <use x="83.3984375" xlink:href="#ArialMT-34"/>
      </g>
     </g>
    </g>
    <g id="ytick_9">
     <g id="line2d_43">
      <path clip-path="url(#p1fed82349c)" d="M 72 39.6 
L 518.4 39.6 
" style="fill:none;stroke:#ffffff;stroke-linecap:round;"/>
     </g>
     <g id="line2d_44">
      <g>
       <use style="fill:#262626;stroke:#262626;" x="72.0" xlink:href="#m55f5eba842" y="39.6"/>
      </g>
     </g>
     <g id="line2d_45">
      <g>
       <use style="fill:#262626;stroke:#262626;" x="518.4" xlink:href="#m55f5eba842" y="39.6"/>
      </g>
     </g>
     <g id="text_15">
      <!-- 1.6 -->
      <g style="fill:#262626;" transform="translate(51.1 42.18515625)scale(0.1 -0.1)">
       <use xlink:href="#ArialMT-31"/>
       <use x="55.615234375" xlink:href="#ArialMT-2e"/>
       <use x="83.3984375" xlink:href="#ArialMT-36"/>
      </g>
     </g>
    </g>
    <g id="text_16">
     <!-- 1e9 -->
     <defs>
      <path d="M 5.46875 16.546875 
L 13.921875 17.328125 
Q 14.984375 11.375 18.015625 8.6875 
Q 21.046875 6 25.78125 6 
Q 29.828125 6 32.875 7.859375 
Q 35.9375 9.71875 37.890625 12.8125 
Q 39.84375 15.921875 41.15625 21.1875 
Q 42.484375 26.46875 42.484375 31.9375 
Q 42.484375 32.515625 42.4375 33.6875 
Q 39.796875 29.5 35.234375 26.875 
Q 30.671875 24.265625 25.34375 24.265625 
Q 16.453125 24.265625 10.296875 30.703125 
Q 4.15625 37.15625 4.15625 47.703125 
Q 4.15625 58.59375 10.578125 65.234375 
Q 17 71.875 26.65625 71.875 
Q 33.640625 71.875 39.421875 68.109375 
Q 45.21875 64.359375 48.21875 57.390625 
Q 51.21875 50.4375 51.21875 37.25 
Q 51.21875 23.53125 48.234375 15.40625 
Q 45.265625 7.28125 39.375 3.03125 
Q 33.5 -1.21875 25.59375 -1.21875 
Q 17.1875 -1.21875 11.859375 3.4375 
Q 6.546875 8.109375 5.46875 16.546875 
M 41.453125 48.140625 
Q 41.453125 55.71875 37.421875 60.15625 
Q 33.40625 64.59375 27.734375 64.59375 
Q 21.875 64.59375 17.53125 59.8125 
Q 13.1875 55.03125 13.1875 47.40625 
Q 13.1875 40.578125 17.3125 36.296875 
Q 21.4375 32.03125 27.484375 32.03125 
Q 33.59375 32.03125 37.515625 36.296875 
Q 41.453125 40.578125 41.453125 48.140625 
" id="ArialMT-39"/>
      <path d="M 42.09375 16.703125 
L 51.171875 15.578125 
Q 49.03125 7.625 43.21875 3.21875 
Q 37.40625 -1.171875 28.375 -1.171875 
Q 17 -1.171875 10.328125 5.828125 
Q 3.65625 12.84375 3.65625 25.484375 
Q 3.65625 38.578125 10.390625 45.796875 
Q 17.140625 53.03125 27.875 53.03125 
Q 38.28125 53.03125 44.875 45.953125 
Q 51.46875 38.875 51.46875 26.03125 
Q 51.46875 25.25 51.421875 23.6875 
L 12.75 23.6875 
Q 13.234375 15.140625 17.578125 10.59375 
Q 21.921875 6.0625 28.421875 6.0625 
Q 33.25 6.0625 36.671875 8.59375 
Q 40.09375 11.140625 42.09375 16.703125 
M 13.234375 30.90625 
L 42.1875 30.90625 
Q 41.609375 37.453125 38.875 40.71875 
Q 34.671875 45.796875 27.984375 45.796875 
Q 21.921875 45.796875 17.796875 41.75 
Q 13.671875 37.703125 13.234375 30.90625 
" id="ArialMT-65"/>
     </defs>
     <g style="fill:#262626;" transform="translate(72.0 36.6)scale(0.1 -0.1)">
      <use xlink:href="#ArialMT-31"/>
      <use x="55.615234375" xlink:href="#ArialMT-65"/>
      <use x="111.23046875" xlink:href="#ArialMT-39"/>
     </g>
    </g>
   </g>
   <g id="line2d_46">
    <path clip-path="url(#p1fed82349c)" d="M 72 52.953247 
L 518.399994 52.953247 
L 518.399994 52.953247 
" style="fill:none;stroke:#4c72b0;stroke-linecap:round;stroke-width:1.75;"/>
   </g>
   <g id="line2d_47">
    <path clip-path="url(#p1fed82349c)" d="M 72 355.745517 
L 75.580734 355.739028 
L 76.774323 355.510324 
L 130.49144 355.491671 
L 131.679123 350.555876 
L 132.872711 329.787583 
L 135.259888 166.493556 
L 136.453522 184.139468 
L 137.64711 165.607935 
L 138.840683 164.550381 
L 140.034195 164.401966 
L 141.227844 167.327272 
L 142.421432 166.841478 
L 143.621124 159.365606 
L 144.808578 164.840721 
L 146.002167 161.329057 
L 147.195724 157.209947 
L 148.389313 163.945369 
L 149.582886 157.136956 
L 150.776505 163.632319 
L 151.970078 159.209082 
L 153.163605 163.208162 
L 154.357224 161.874865 
L 155.550797 161.030606 
L 156.744385 156.313783 
L 157.943878 163.711798 
L 159.131607 158.573252 
L 160.32515 162.795359 
L 161.518692 160.980323 
L 162.712311 161.046826 
L 163.905899 162.724802 
L 165.099472 162.26496 
L 166.293015 157.384314 
L 167.486633 161.855401 
L 168.680206 163.62502 
L 169.873703 159.737048 
L 171.067368 161.453141 
L 172.260971 164.122979 
L 173.454544 166.249442 
L 174.648849 164.467658 
L 175.841721 161.214705 
L 177.035294 162.054098 
L 178.234909 163.480661 
L 179.42244 165.924228 
L 180.616028 164.65419 
L 181.80957 167.515426 
L 183.003204 166.041824 
L 184.203033 168.562437 
L 185.39035 158.254525 
L 186.583954 168.692198 
L 187.783844 157.131279 
L 188.97113 174.500638 
L 190.164688 158.286155 
L 191.358261 175.441407 
L 192.551849 163.714231 
L 193.745392 174.362766 
L 194.939026 160.993299 
L 196.132599 171.177127 
L 197.326263 165.792034 
L 198.51976 173.082996 
L 199.719376 170.48777 
L 200.906921 171.859185 
L 202.10051 176.528158 
L 203.294098 172.829961 
L 204.487732 171.608583 
L 205.681274 172.735884 
L 206.874863 173.430918 
L 208.068436 169.473199 
L 209.262009 176.266202 
L 210.455597 169.931419 
L 211.649185 177.1575 
L 212.842682 170.666192 
L 214.036331 176.818499 
L 215.229919 169.597283 
L 216.423508 175.689575 
L 217.617096 166.213758 
L 218.810638 172.109786 
L 220.004272 166.582767 
L 221.197845 174.259768 
L 222.391418 167.256714 
L 223.585022 175.10565 
L 224.77858 166.103461 
L 225.9785 172.250902 
L 227.165741 162.540703 
L 228.359299 170.707553 
L 229.552917 163.090566 
L 230.746475 170.281774 
L 231.940125 162.314431 
L 233.133682 167.642754 
L 234.327286 159.840857 
L 235.527023 166.439218 
L 236.714417 159.068777 
L 237.908005 165.590904 
L 239.101578 161.030606 
L 240.295151 168.88684 
L 241.488739 159.864376 
L 242.682327 168.035282 
L 243.875916 157.383503 
L 245.07547 166.398668 
L 246.263077 156.318649 
L 247.45665 166.165097 
L 248.650223 157.289426 
L 249.843842 166.135901 
L 251.037415 157.314567 
L 252.231003 174.963723 
L 253.424637 156.025875 
L 254.618103 175.301103 
L 255.811707 154.53281 
L 257.005356 175.463304 
L 258.198868 157.362417 
L 259.392563 176.347303 
L 260.586136 156.12644 
L 261.779678 181.78349 
L 262.973221 157.217246 
L 264.166809 182.972427 
L 265.360397 158.239116 
L 266.553986 183.48985 
L 267.747513 154.888842 
L 268.947266 182.063287 
L 270.134735 154.999139 
L 271.328323 180.571844 
L 272.521957 154.995084 
L 273.718384 180.494798 
L 274.909088 154.175155 
L 276.102676 180.275015 
L 277.296249 151.10549 
L 278.489807 177.556516 
L 279.683395 152.412024 
L 280.876953 179.015519 
L 282.077835 152.095731 
L 283.264053 178.463223 
L 284.457764 155.476823 
L 285.651306 177.218326 
L 286.84494 160.788925 
L 288.038498 178.754375 
L 289.23204 161.874865 
L 290.425644 173.768297 
L 291.619202 161.231736 
L 292.812744 178.574331 
L 294.006332 163.018386 
L 295.205826 175.889894 
L 296.393494 168.125304 
L 297.587189 178.468089 
L 298.780685 169.036877 
L 299.974228 175.603609 
L 301.167862 167.16507 
L 302.36145 179.236924 
L 303.555054 166.929067 
L 304.748657 178.041499 
L 305.9422 168.840613 
L 307.135773 176.205377 
L 308.329361 169.098513 
L 309.522934 177.387015 
L 310.716507 166.643592 
L 311.910095 175.199727 
L 313.103729 168.249388 
L 314.297256 174.486851 
L 315.490829 165.749861 
L 316.684448 172.143037 
L 317.884308 166.999625 
L 319.071609 174.519291 
L 320.265198 167.390531 
L 321.464615 172.80482 
L 322.652374 163.46363 
L 323.845947 170.365308 
L 325.039536 163.374419 
L 326.233154 170.306915 
L 327.432785 165.178912 
L 328.620285 171.941096 
L 329.813843 163.85778 
L 331.007416 169.575386 
L 332.200989 163.491204 
L 333.394623 169.3775 
L 334.588165 163.505802 
L 335.781754 169.499962 
L 336.975342 164.923444 
L 338.168869 167.989054 
L 339.362473 164.326542 
L 340.556107 168.042581 
L 341.74968 163.79371 
L 342.943253 170.390449 
L 344.136826 164.101082 
L 345.330383 169.981701 
L 346.524002 164.996435 
L 347.717621 169.719746 
L 348.911163 163.178155 
L 350.104736 169.177181 
L 351.298325 163.268177 
L 352.497955 168.684899 
L 353.691574 164.240575 
L 354.879059 172.234681 
L 356.072693 161.118195 
L 357.266251 159.337221 
L 358.459854 162.140876 
L 359.653366 159.076888 
L 360.846985 163.508235 
L 362.040558 158.691659 
L 363.234146 162.979458 
L 364.427719 157.941476 
L 365.621307 162.910522 
L 366.814926 158.036364 
L 368.008514 163.792088 
L 369.202087 159.330733 
L 370.39563 165.371121 
L 371.589233 158.018522 
L 372.789001 164.958318 
L 373.98233 154.579848 
L 375.176071 163.462819 
L 376.363571 155.094838 
L 377.557114 162.669653 
L 378.750702 154.360065 
L 379.953125 161.380961 
L 381.137924 155.154853 
L 382.331482 169.074994 
L 383.52504 152.756702 
L 384.718628 167.474064 
L 385.918304 153.121656 
L 387.105835 168.273718 
L 388.299393 153.476877 
L 389.492981 168.761945 
L 390.686539 151.108734 
L 391.880127 174.664461 
L 393.073715 152.15169 
L 394.267303 174.413049 
L 395.460983 150.730804 
L 396.654465 175.06591 
L 397.848068 151.207677 
L 399.041702 175.552515 
L 400.235245 150.327733 
L 401.428818 176.065072 
L 402.622375 153.10057 
L 403.815979 176.05534 
L 405.009583 150.376394 
L 406.20314 176.822554 
L 407.396698 148.425919 
L 408.590317 176.660352 
L 409.783936 151.432326 
L 410.977463 175.911792 
L 412.171066 155.645513 
L 413.364639 173.913468 
L 414.558228 153.68044 
L 415.751831 173.605285 
L 416.945419 156.014521 
L 418.138931 174.229761 
L 419.332565 157.965807 
L 420.526108 173.037579 
L 421.719696 163.14166 
L 422.913284 172.190076 
L 424.106903 163.696389 
L 425.300461 173.065154 
L 426.494034 163.040284 
L 427.687637 171.178749 
L 428.881241 168.32319 
L 430.074814 169.229897 
L 431.268372 174.543621 
L 432.46199 169.647566 
L 433.655579 174.713122 
L 434.849152 168.379149 
L 436.04274 171.63859 
L 437.236282 166.901493 
L 438.435959 172.503125 
L 439.623459 166.779842 
L 440.817108 172.327136 
L 442.010574 168.11395 
L 443.204208 172.948368 
L 444.397781 166.899871 
L 445.591339 172.916739 
L 446.784943 164.593364 
L 447.978516 171.443138 
L 449.172104 163.712609 
L 450.365692 170.204728 
L 451.55925 163.695578 
L 452.752808 171.75862 
L 453.946426 161.290939 
L 455.14003 175.042391 
L 456.333633 162.140065 
L 457.527222 174.420348 
L 458.720795 160.960048 
L 459.920792 172.562329 
L 461.113998 160.856239 
L 462.307526 176.389475 
L 463.495148 160.09227 
L 464.68869 180.352871 
L 465.882294 159.111761 
L 467.075882 178.992811 
L 468.269455 158.284533 
L 469.463028 176.623857 
L 470.656647 157.482446 
L 471.856323 182.064909 
L 473.043762 156.305673 
L 474.23735 181.854858 
L 475.430939 156.598447 
L 476.624573 182.051933 
L 477.818115 156.722531 
L 479.017792 182.402289 
L 480.211258 156.027497 
L 481.398819 181.657783 
L 482.598541 156.543299 
L 483.78598 182.122491 
L 484.979584 155.664166 
L 486.173172 181.12414 
L 487.36676 153.166261 
L 488.560318 179.207728 
L 489.753967 151.999221 
L 490.947495 178.762485 
L 492.141113 153.798036 
L 493.334717 180.081995 
L 494.528229 153.705582 
L 495.727951 180.112002 
L 496.915436 156.225383 
L 498.109024 176.291343 
L 499.302597 157.63897 
L 500.49617 174.579305 
L 501.689804 160.340438 
L 502.889267 169.113923 
L 505.270523 169.052286 
L 518.399994 169.052286 
L 518.399994 169.052286 
" style="fill:none;stroke:#55a868;stroke-linecap:round;stroke-width:1.75;"/>
   </g>
   <g id="line2d_48">
    <path clip-path="url(#p1fed82349c)" d="M 72 322.778852 
L 75.580734 96.866086 
L 76.774323 54.012423 
L 81.54866 54.052163 
L 83.935867 54.306819 
L 91.097351 55.293816 
L 92.290909 55.511166 
L 100.645966 55.493324 
L 109.001144 55.493324 
L 110.194733 56.975035 
L 120.943436 56.975035 
L 122.130478 57.741438 
L 129.291946 57.741438 
L 130.49144 55.110528 
L 131.679123 54.730976 
L 135.259888 54.681505 
L 143.621124 54.861549 
L 151.970078 55.189196 
L 154.357224 55.228935 
L 163.905899 55.559015 
L 168.680206 55.670124 
L 177.035294 55.945866 
L 185.39035 56.178626 
L 188.97113 56.196468 
L 220.004272 56.199712 
L 223.585022 56.226475 
L 236.714417 56.267025 
L 239.101578 56.269458 
L 242.682327 56.225664 
L 245.07547 56.241884 
L 257.005356 56.261348 
L 270.134735 56.310009 
L 272.521957 56.303521 
L 278.489807 56.271891 
L 279.683395 56.344882 
L 280.876953 56.274324 
L 283.264053 56.317308 
L 289.23204 56.34326 
L 292.812744 56.306765 
L 308.329361 56.315686 
L 372.789001 56.330284 
L 376.363571 56.284057 
L 381.137924 56.322174 
L 387.105835 56.313253 
L 395.460983 56.316497 
L 445.591339 56.313253 
L 447.978516 56.331095 
L 490.947495 56.348937 
L 493.334717 56.347315 
L 496.915436 56.364346 
L 510.044876 56.31893 
L 518.399994 56.31893 
L 518.399994 56.31893 
" style="fill:none;stroke:#c44e52;stroke-linecap:round;stroke-width:1.75;"/>
   </g>
   <g id="line2d_49">
    <path clip-path="url(#p1fed82349c)" d="M 72 323.443068 
L 75.580734 97.530301 
L 76.774323 54.913453 
L 81.54866 54.947515 
L 83.935867 55.201361 
L 93.484497 56.382189 
L 109.001144 56.382189 
L 110.194733 57.8639 
L 120.943436 57.8639 
L 122.130478 58.630303 
L 129.291946 58.630303 
L 130.49144 56.018857 
L 131.679123 60.5751 
L 132.872711 81.302031 
L 135.259888 244.598492 
L 136.453522 226.956635 
L 137.64711 245.47357 
L 138.840683 246.55221 
L 140.034195 246.749285 
L 141.227844 243.850743 
L 142.421432 244.386008 
L 143.621124 251.895942 
L 144.808578 246.478409 
L 146.002167 250.071985 
L 147.195724 254.204882 
L 148.389313 247.464594 
L 149.582886 254.342753 
L 150.776505 247.873342 
L 151.970078 252.381736 
L 153.163605 248.360758 
L 154.357224 249.758125 
L 155.550797 250.638069 
L 156.744385 255.383277 
L 157.943878 248.003915 
L 159.131607 253.186256 
L 160.32515 249.016053 
L 161.518692 250.89678 
L 162.712311 250.838388 
L 163.905899 249.240702 
L 165.099472 249.74596 
L 166.293015 254.600654 
L 167.486633 250.176605 
L 168.680206 248.445103 
L 169.873703 252.364705 
L 171.067368 250.684296 
L 172.260971 248.090693 
L 173.454544 245.954498 
L 174.648849 247.764667 
L 175.841721 251.104398 
L 177.035294 250.291768 
L 178.234909 248.912244 
L 179.42244 246.458945 
L 180.616028 247.788998 
L 181.80957 244.95858 
L 183.003204 246.480842 
L 184.203033 243.968339 
L 185.39035 254.325722 
L 186.583954 243.858042 
L 187.783844 255.473298 
L 188.97113 238.09583 
L 190.164688 254.307069 
L 191.358261 237.152628 
L 192.551849 248.936574 
L 193.745392 238.237756 
L 194.939026 251.639664 
L 196.132599 241.443671 
L 197.326263 246.806056 
L 198.51976 239.531314 
L 199.719376 242.141138 
L 200.906921 240.749448 
L 202.10051 236.096695 
L 203.294098 239.798136 
L 204.487732 240.991129 
L 205.681274 239.867882 
L 206.874863 239.193935 
L 208.068436 243.153276 
L 209.262009 236.364328 
L 210.455597 242.661805 
L 211.649185 235.480329 
L 212.842682 241.931898 
L 214.036331 235.813654 
L 215.229919 243.017838 
L 216.423508 236.934467 
L 217.617096 246.391631 
L 218.810638 240.513445 
L 220.004272 246.019378 
L 221.197845 238.391037 
L 222.391418 245.373005 
L 223.585022 237.520825 
L 224.77858 246.522203 
L 225.9785 240.37314 
L 227.165741 250.095504 
L 228.359299 241.916489 
L 229.552917 249.533476 
L 230.746475 242.352811 
L 231.940125 250.320965 
L 233.133682 244.959391 
L 234.327286 252.809948 
L 235.527023 246.179958 
L 236.714417 253.608791 
L 237.908005 247.106129 
L 239.101578 251.642908 
L 240.295151 243.754233 
L 241.488739 252.783996 
L 242.682327 244.592815 
L 243.875916 255.311908 
L 245.07547 246.244838 
L 246.263077 256.338644 
L 247.45665 246.484086 
L 248.650223 255.394631 
L 249.843842 246.494629 
L 251.037415 255.382466 
L 252.231003 237.679783 
L 253.424637 256.60871 
L 254.618103 237.339971 
L 255.811707 258.134216 
L 257.005356 237.198044 
L 258.198868 255.308664 
L 259.392563 236.314856 
L 260.586136 256.52842 
L 261.779678 230.880292 
L 262.973221 255.479786 
L 264.166809 229.715684 
L 265.360397 254.424665 
L 266.553986 229.190151 
L 267.747513 257.784671 
L 268.947266 230.61347 
L 270.134735 257.722224 
L 271.328323 232.10167 
L 272.521957 257.711681 
L 273.718384 232.188448 
L 274.909088 258.512956 
L 276.102676 232.406609 
L 277.296249 261.585055 
L 278.489807 235.116187 
L 279.683395 260.339346 
L 280.876953 233.664482 
L 282.077835 260.638608 
L 283.264053 234.258951 
L 284.457764 257.263193 
L 285.651306 235.494116 
L 286.84494 251.93406 
L 288.038498 233.963744 
L 289.23204 250.868395 
L 290.425644 238.930357 
L 291.619202 251.502603 
L 292.812744 234.138111 
L 294.006332 249.703788 
L 295.205826 236.83228 
L 296.393494 244.596059 
L 297.587189 234.248408 
L 298.780685 243.702328 
L 299.974228 237.118565 
L 301.167862 245.553049 
L 302.36145 233.496604 
L 303.555054 245.804461 
L 304.748657 234.682297 
L 305.9422 243.894537 
L 307.135773 236.524908 
L 308.329361 243.618794 
L 309.522934 235.333537 
L 310.716507 246.089936 
L 311.910095 237.519203 
L 313.103729 244.448456 
L 314.297256 238.238567 
L 315.490829 246.961769 
L 316.684448 240.584814 
L 317.884308 245.720927 
L 319.071609 238.190718 
L 320.265198 245.339753 
L 321.464615 239.927086 
L 322.652374 249.269898 
L 323.845947 242.355244 
L 325.039536 249.369652 
L 326.233154 242.389306 
L 327.432785 247.535152 
L 328.620285 240.779455 
L 329.813843 248.905756 
L 331.007416 243.162197 
L 332.200989 249.240702 
L 333.394623 243.339808 
L 334.588165 249.23097 
L 335.781754 243.230322 
L 336.975342 247.810084 
L 338.168869 244.730686 
L 339.362473 248.379411 
L 340.556107 244.650397 
L 341.74968 248.900079 
L 342.943253 242.321993 
L 344.136826 248.604872 
L 345.330383 242.722631 
L 346.524002 247.692488 
L 347.717621 242.974043 
L 348.911163 249.526177 
L 350.104736 243.525529 
L 351.298325 249.420746 
L 352.497955 244.005645 
L 353.691574 248.509173 
L 354.879059 240.457485 
L 356.072693 251.627498 
L 357.266251 253.3663 
L 358.459854 250.573999 
L 359.653366 253.651774 
L 360.846985 249.208262 
L 362.040558 254.041869 
L 363.234146 249.771101 
L 364.427719 254.766099 
L 365.621307 249.801919 
L 366.814926 254.70203 
L 368.008514 248.953605 
L 369.202087 253.399551 
L 370.39563 247.318613 
L 371.589233 254.690676 
L 372.789001 247.778455 
L 373.98233 258.117185 
L 375.176071 249.24719 
L 376.363571 257.589218 
L 377.557114 250.050088 
L 378.750702 258.386439 
L 379.953125 251.353378 
L 381.137924 257.571376 
L 382.331482 243.633393 
L 383.52504 259.958984 
L 384.718628 245.252165 
L 385.918304 259.592408 
L 387.105835 244.445212 
L 388.299393 259.255029 
L 389.492981 243.942387 
L 390.686539 261.612629 
L 391.880127 238.046359 
L 393.073715 260.563996 
L 394.267303 238.298582 
L 395.460983 261.996236 
L 396.654465 237.652209 
L 397.848068 261.496655 
L 399.041702 237.155872 
L 400.235245 262.384709 
L 401.428818 236.653858 
L 402.622375 259.647557 
L 403.815979 236.666834 
L 405.009583 262.380654 
L 406.20314 235.889888 
L 407.396698 264.302743 
L 408.590317 236.065877 
L 409.783936 261.326343 
L 410.977463 236.807949 
L 412.171066 257.082338 
L 413.364639 238.822493 
L 414.558228 259.083095 
L 415.751831 239.130676 
L 416.945419 256.71333 
L 418.138931 238.489169 
L 419.332565 254.804217 
L 420.526108 239.68054 
L 421.719696 249.595112 
L 422.913284 240.539397 
L 424.106903 249.004699 
L 425.300461 239.649721 
L 426.494034 249.695677 
L 427.687637 241.557212 
L 428.881241 244.403039 
L 430.074814 243.493899 
L 431.268372 238.181797 
L 432.46199 243.086773 
L 433.655579 238.010674 
L 434.849152 244.353568 
L 436.04274 241.095749 
L 437.236282 245.830413 
L 438.435959 240.230403 
L 439.623459 245.941521 
L 440.817108 240.399904 
L 442.010574 244.61309 
L 443.204208 239.779483 
L 444.397781 245.837712 
L 445.591339 239.796514 
L 446.784943 248.175848 
L 447.978516 241.296068 
L 449.172104 249.024163 
L 450.365692 242.532855 
L 451.55925 249.095532 
L 452.752808 240.987885 
L 453.946426 251.498548 
L 455.14003 237.702491 
L 456.333633 250.644557 
L 457.527222 238.326156 
L 458.720795 251.806731 
L 459.920792 240.188231 
L 461.113998 251.865124 
L 462.307526 236.34973 
L 463.495148 252.652613 
L 464.68869 232.387145 
L 465.882294 253.68016 
L 467.075882 233.761803 
L 468.269455 254.453861 
L 469.463028 236.108049 
L 470.656647 255.286767 
L 471.856323 230.68565 
L 473.043762 256.483814 
L 474.23735 230.877048 
L 475.430939 256.141569 
L 476.624573 230.701059 
L 477.818115 256.048303 
L 479.017792 230.345838 
L 480.211258 256.759557 
L 481.398819 231.100886 
L 482.598541 256.208072 
L 483.78598 230.624824 
L 484.979584 257.111535 
L 486.173172 231.645072 
L 487.36676 259.619171 
L 488.560318 233.542831 
L 489.753967 260.744039 
L 490.947495 233.997807 
L 492.141113 259.007671 
L 493.334717 232.673431 
L 494.528229 259.076607 
L 495.727951 232.655588 
L 496.915436 256.547073 
L 498.109024 236.464082 
L 499.302597 255.157005 
L 500.49617 238.175309 
L 501.689804 252.445806 
L 502.889267 243.638259 
L 507.65773 243.666644 
L 518.399994 243.666644 
L 518.399994 243.666644 
" style="fill:none;stroke:#8172b2;stroke-linecap:round;stroke-width:1.75;"/>
   </g>
   <g id="patch_3">
    <path d="M 72 39.6 
L 518.399994 39.6 
" style="fill:none;"/>
   </g>
   <g id="patch_4">
    <path d="M 518.4 356.4 
L 518.4 39.6 
" style="fill:none;"/>
   </g>
   <g id="patch_5">
    <path d="M 72 356.4 
L 518.399994 356.4 
" style="fill:none;"/>
   </g>
   <g id="patch_6">
    <path d="M 72 356.4 
L 72 39.6 
" style="fill:none;"/>
   </g>
   <g id="legend_1">
    <g id="line2d_50">
     <path d="M 383.017187 52.257812 
L 403.017187 52.257812 
" style="fill:none;stroke:#4c72b0;stroke-linecap:round;stroke-width:1.75;"/>
    </g>
    <g id="line2d_51"/>
    <g id="text_17">
     <!-- 06ef.limit -->
     <defs>
      <path d="M 6.390625 0 
L 6.390625 71.578125 
L 15.1875 71.578125 
L 15.1875 0 
z
" id="ArialMT-6c"/>
      <path d="M 25.78125 7.859375 
L 27.046875 0.09375 
Q 23.34375 -0.6875 20.40625 -0.6875 
Q 15.625 -0.6875 12.984375 0.828125 
Q 10.359375 2.34375 9.28125 4.8125 
Q 8.203125 7.28125 8.203125 15.1875 
L 8.203125 45.015625 
L 1.765625 45.015625 
L 1.765625 51.859375 
L 8.203125 51.859375 
L 8.203125 64.703125 
L 16.9375 69.96875 
L 16.9375 51.859375 
L 25.78125 51.859375 
L 25.78125 45.015625 
L 16.9375 45.015625 
L 16.9375 14.703125 
Q 16.9375 10.9375 17.40625 9.859375 
Q 17.875 8.796875 18.921875 8.15625 
Q 19.96875 7.515625 21.921875 7.515625 
Q 23.390625 7.515625 25.78125 7.859375 
" id="ArialMT-74"/>
      <path d="M 6.640625 61.46875 
L 6.640625 71.578125 
L 15.4375 71.578125 
L 15.4375 61.46875 
z
M 6.640625 0 
L 6.640625 51.859375 
L 15.4375 51.859375 
L 15.4375 0 
z
" id="ArialMT-69"/>
      <path d="M 8.6875 0 
L 8.6875 45.015625 
L 0.921875 45.015625 
L 0.921875 51.859375 
L 8.6875 51.859375 
L 8.6875 57.375 
Q 8.6875 62.59375 9.625 65.140625 
Q 10.890625 68.5625 14.078125 70.671875 
Q 17.28125 72.796875 23.046875 72.796875 
Q 26.765625 72.796875 31.25 71.921875 
L 29.9375 64.265625 
Q 27.203125 64.75 24.75 64.75 
Q 20.75 64.75 19.09375 63.03125 
Q 17.4375 61.328125 17.4375 56.640625 
L 17.4375 51.859375 
L 27.546875 51.859375 
L 27.546875 45.015625 
L 17.4375 45.015625 
L 17.4375 0 
z
" id="ArialMT-66"/>
      <path d="M 6.59375 0 
L 6.59375 51.859375 
L 14.453125 51.859375 
L 14.453125 44.578125 
Q 16.890625 48.390625 20.9375 50.703125 
Q 25 53.03125 30.171875 53.03125 
Q 35.9375 53.03125 39.625 50.640625 
Q 43.3125 48.25 44.828125 43.953125 
Q 50.984375 53.03125 60.84375 53.03125 
Q 68.5625 53.03125 72.703125 48.75 
Q 76.859375 44.484375 76.859375 35.59375 
L 76.859375 0 
L 68.109375 0 
L 68.109375 32.671875 
Q 68.109375 37.9375 67.25 40.25 
Q 66.40625 42.578125 64.15625 43.984375 
Q 61.921875 45.40625 58.890625 45.40625 
Q 53.421875 45.40625 49.796875 41.765625 
Q 46.1875 38.140625 46.1875 30.125 
L 46.1875 0 
L 37.40625 0 
L 37.40625 33.6875 
Q 37.40625 39.546875 35.25 42.46875 
Q 33.109375 45.40625 28.21875 45.40625 
Q 24.515625 45.40625 21.359375 43.453125 
Q 18.21875 41.5 16.796875 37.734375 
Q 15.375 33.984375 15.375 26.90625 
L 15.375 0 
z
" id="ArialMT-6d"/>
     </defs>
     <g style="fill:#262626;" transform="translate(411.0171875 55.7578125)scale(0.1 -0.1)">
      <use xlink:href="#ArialMT-30"/>
      <use x="55.615234375" xlink:href="#ArialMT-36"/>
      <use x="111.23046875" xlink:href="#ArialMT-65"/>
      <use x="166.845703125" xlink:href="#ArialMT-66"/>
      <use x="194.62890625" xlink:href="#ArialMT-2e"/>
      <use x="222.412109375" xlink:href="#ArialMT-6c"/>
      <use x="244.62890625" xlink:href="#ArialMT-69"/>
      <use x="266.845703125" xlink:href="#ArialMT-6d"/>
      <use x="350.146484375" xlink:href="#ArialMT-69"/>
      <use x="372.36328125" xlink:href="#ArialMT-74"/>
     </g>
    </g>
    <g id="line2d_52">
     <path d="M 383.017187 66.525 
L 403.017187 66.525 
" style="fill:none;stroke:#55a868;stroke-linecap:round;stroke-width:1.75;"/>
    </g>
    <g id="line2d_53"/>
    <g id="text_18">
     <!-- 06ef.stats.active_file -->
     <defs>
      <path d="M 40.4375 19 
L 49.078125 17.875 
Q 47.65625 8.9375 41.8125 3.875 
Q 35.984375 -1.171875 27.484375 -1.171875 
Q 16.84375 -1.171875 10.375 5.78125 
Q 3.90625 12.75 3.90625 25.734375 
Q 3.90625 34.125 6.6875 40.421875 
Q 9.46875 46.734375 15.15625 49.875 
Q 20.84375 53.03125 27.546875 53.03125 
Q 35.984375 53.03125 41.359375 48.75 
Q 46.734375 44.484375 48.25 36.625 
L 39.703125 35.296875 
Q 38.484375 40.53125 35.375 43.15625 
Q 32.28125 45.796875 27.875 45.796875 
Q 21.234375 45.796875 17.078125 41.03125 
Q 12.9375 36.28125 12.9375 25.984375 
Q 12.9375 15.53125 16.9375 10.796875 
Q 20.953125 6.0625 27.390625 6.0625 
Q 32.5625 6.0625 36.03125 9.234375 
Q 39.5 12.40625 40.4375 19 
" id="ArialMT-63"/>
      <path d="M 40.4375 6.390625 
Q 35.546875 2.25 31.03125 0.53125 
Q 26.515625 -1.171875 21.34375 -1.171875 
Q 12.796875 -1.171875 8.203125 3 
Q 3.609375 7.171875 3.609375 13.671875 
Q 3.609375 17.484375 5.34375 20.625 
Q 7.078125 23.78125 9.890625 25.6875 
Q 12.703125 27.59375 16.21875 28.5625 
Q 18.796875 29.25 24.03125 29.890625 
Q 34.671875 31.15625 39.703125 32.90625 
Q 39.75 34.71875 39.75 35.203125 
Q 39.75 40.578125 37.25 42.78125 
Q 33.890625 45.75 27.25 45.75 
Q 21.046875 45.75 18.09375 43.578125 
Q 15.140625 41.40625 13.71875 35.890625 
L 5.125 37.0625 
Q 6.296875 42.578125 8.984375 45.96875 
Q 11.671875 49.359375 16.75 51.1875 
Q 21.828125 53.03125 28.515625 53.03125 
Q 35.15625 53.03125 39.296875 51.46875 
Q 43.453125 49.90625 45.40625 47.53125 
Q 47.359375 45.171875 48.140625 41.546875 
Q 48.578125 39.3125 48.578125 33.453125 
L 48.578125 21.734375 
Q 48.578125 9.46875 49.140625 6.21875 
Q 49.703125 2.984375 51.375 0 
L 42.1875 0 
Q 40.828125 2.734375 40.4375 6.390625 
M 39.703125 26.03125 
Q 34.90625 24.078125 25.34375 22.703125 
Q 19.921875 21.921875 17.671875 20.9375 
Q 15.4375 19.96875 14.203125 18.09375 
Q 12.984375 16.21875 12.984375 13.921875 
Q 12.984375 10.40625 15.640625 8.0625 
Q 18.3125 5.71875 23.4375 5.71875 
Q 28.515625 5.71875 32.46875 7.9375 
Q 36.421875 10.15625 38.28125 14.015625 
Q 39.703125 17 39.703125 22.796875 
z
" id="ArialMT-61"/>
      <path d="M -1.515625 -19.875 
L -1.515625 -13.53125 
L 56.734375 -13.53125 
L 56.734375 -19.875 
z
" id="ArialMT-5f"/>
      <path d="M 21 0 
L 1.265625 51.859375 
L 10.546875 51.859375 
L 21.6875 20.796875 
Q 23.484375 15.765625 25 10.359375 
Q 26.171875 14.453125 28.265625 20.21875 
L 39.796875 51.859375 
L 48.828125 51.859375 
L 29.203125 0 
z
" id="ArialMT-76"/>
      <path d="M 3.078125 15.484375 
L 11.765625 16.84375 
Q 12.5 11.625 15.84375 8.84375 
Q 19.1875 6.0625 25.203125 6.0625 
Q 31.25 6.0625 34.171875 8.515625 
Q 37.109375 10.984375 37.109375 14.3125 
Q 37.109375 17.28125 34.515625 19 
Q 32.71875 20.171875 25.53125 21.96875 
Q 15.875 24.421875 12.140625 26.203125 
Q 8.40625 27.984375 6.46875 31.125 
Q 4.546875 34.28125 4.546875 38.09375 
Q 4.546875 41.546875 6.125 44.5 
Q 7.71875 47.46875 10.453125 49.421875 
Q 12.5 50.921875 16.03125 51.96875 
Q 19.578125 53.03125 23.640625 53.03125 
Q 29.734375 53.03125 34.34375 51.265625 
Q 38.96875 49.515625 41.15625 46.5 
Q 43.359375 43.5 44.1875 38.484375 
L 35.59375 37.3125 
Q 35.015625 41.3125 32.203125 43.546875 
Q 29.390625 45.796875 24.265625 45.796875 
Q 18.21875 45.796875 15.625 43.796875 
Q 13.03125 41.796875 13.03125 39.109375 
Q 13.03125 37.40625 14.109375 36.03125 
Q 15.1875 34.625 17.484375 33.6875 
Q 18.796875 33.203125 25.25 31.453125 
Q 34.578125 28.953125 38.25 27.359375 
Q 41.9375 25.78125 44.03125 22.75 
Q 46.140625 19.734375 46.140625 15.234375 
Q 46.140625 10.84375 43.578125 6.953125 
Q 41.015625 3.078125 36.171875 0.953125 
Q 31.34375 -1.171875 25.25 -1.171875 
Q 15.140625 -1.171875 9.84375 3.03125 
Q 4.546875 7.234375 3.078125 15.484375 
" id="ArialMT-73"/>
     </defs>
     <g style="fill:#262626;" transform="translate(411.0171875 70.025)scale(0.1 -0.1)">
      <use xlink:href="#ArialMT-30"/>
      <use x="55.615234375" xlink:href="#ArialMT-36"/>
      <use x="111.23046875" xlink:href="#ArialMT-65"/>
      <use x="166.845703125" xlink:href="#ArialMT-66"/>
      <use x="194.62890625" xlink:href="#ArialMT-2e"/>
      <use x="222.412109375" xlink:href="#ArialMT-73"/>
      <use x="272.412109375" xlink:href="#ArialMT-74"/>
      <use x="300.1953125" xlink:href="#ArialMT-61"/>
      <use x="355.810546875" xlink:href="#ArialMT-74"/>
      <use x="383.59375" xlink:href="#ArialMT-73"/>
      <use x="433.59375" xlink:href="#ArialMT-2e"/>
      <use x="461.376953125" xlink:href="#ArialMT-61"/>
      <use x="516.9921875" xlink:href="#ArialMT-63"/>
      <use x="566.9921875" xlink:href="#ArialMT-74"/>
      <use x="594.775390625" xlink:href="#ArialMT-69"/>
      <use x="616.9921875" xlink:href="#ArialMT-76"/>
      <use x="666.9921875" xlink:href="#ArialMT-65"/>
      <use x="722.607421875" xlink:href="#ArialMT-5f"/>
      <use x="778.22265625" xlink:href="#ArialMT-66"/>
      <use x="806.005859375" xlink:href="#ArialMT-69"/>
      <use x="828.22265625" xlink:href="#ArialMT-6c"/>
      <use x="850.439453125" xlink:href="#ArialMT-65"/>
     </g>
    </g>
    <g id="line2d_54">
     <path d="M 383.017187 80.670312 
L 403.017187 80.670312 
" style="fill:none;stroke:#c44e52;stroke-linecap:round;stroke-width:1.75;"/>
    </g>
    <g id="line2d_55"/>
    <g id="text_19">
     <!-- 06ef.stats.cache -->
     <defs>
      <path d="M 6.59375 0 
L 6.59375 71.578125 
L 15.375 71.578125 
L 15.375 45.90625 
Q 21.53125 53.03125 30.90625 53.03125 
Q 36.671875 53.03125 40.921875 50.75 
Q 45.171875 48.484375 47 44.484375 
Q 48.828125 40.484375 48.828125 32.859375 
L 48.828125 0 
L 40.046875 0 
L 40.046875 32.859375 
Q 40.046875 39.453125 37.1875 42.453125 
Q 34.328125 45.453125 29.109375 45.453125 
Q 25.203125 45.453125 21.75 43.421875 
Q 18.3125 41.40625 16.84375 37.9375 
Q 15.375 34.46875 15.375 28.375 
L 15.375 0 
z
" id="ArialMT-68"/>
     </defs>
     <g style="fill:#262626;" transform="translate(411.0171875 84.1703125)scale(0.1 -0.1)">
      <use xlink:href="#ArialMT-30"/>
      <use x="55.615234375" xlink:href="#ArialMT-36"/>
      <use x="111.23046875" xlink:href="#ArialMT-65"/>
      <use x="166.845703125" xlink:href="#ArialMT-66"/>
      <use x="194.62890625" xlink:href="#ArialMT-2e"/>
      <use x="222.412109375" xlink:href="#ArialMT-73"/>
      <use x="272.412109375" xlink:href="#ArialMT-74"/>
      <use x="300.1953125" xlink:href="#ArialMT-61"/>
      <use x="355.810546875" xlink:href="#ArialMT-74"/>
      <use x="383.59375" xlink:href="#ArialMT-73"/>
      <use x="433.59375" xlink:href="#ArialMT-2e"/>
      <use x="461.376953125" xlink:href="#ArialMT-63"/>
      <use x="511.376953125" xlink:href="#ArialMT-61"/>
      <use x="566.9921875" xlink:href="#ArialMT-63"/>
      <use x="616.9921875" xlink:href="#ArialMT-68"/>
      <use x="672.607421875" xlink:href="#ArialMT-65"/>
     </g>
    </g>
    <g id="line2d_56">
     <path d="M 383.017187 94.9375 
L 403.017187 94.9375 
" style="fill:none;stroke:#8172b2;stroke-linecap:round;stroke-width:1.75;"/>
    </g>
    <g id="line2d_57"/>
    <g id="text_20">
     <!-- 06ef.stats.inactive_file -->
     <defs>
      <path d="M 6.59375 0 
L 6.59375 51.859375 
L 14.5 51.859375 
L 14.5 44.484375 
Q 20.21875 53.03125 31 53.03125 
Q 35.6875 53.03125 39.625 51.34375 
Q 43.5625 49.65625 45.515625 46.921875 
Q 47.46875 44.1875 48.25 40.4375 
Q 48.734375 37.984375 48.734375 31.890625 
L 48.734375 0 
L 39.9375 0 
L 39.9375 31.546875 
Q 39.9375 36.921875 38.90625 39.578125 
Q 37.890625 42.234375 35.28125 43.8125 
Q 32.671875 45.40625 29.15625 45.40625 
Q 23.53125 45.40625 19.453125 41.84375 
Q 15.375 38.28125 15.375 28.328125 
L 15.375 0 
z
" id="ArialMT-6e"/>
     </defs>
     <g style="fill:#262626;" transform="translate(411.0171875 98.4375)scale(0.1 -0.1)">
      <use xlink:href="#ArialMT-30"/>
      <use x="55.615234375" xlink:href="#ArialMT-36"/>
      <use x="111.23046875" xlink:href="#ArialMT-65"/>
      <use x="166.845703125" xlink:href="#ArialMT-66"/>
      <use x="194.62890625" xlink:href="#ArialMT-2e"/>
      <use x="222.412109375" xlink:href="#ArialMT-73"/>
      <use x="272.412109375" xlink:href="#ArialMT-74"/>
      <use x="300.1953125" xlink:href="#ArialMT-61"/>
      <use x="355.810546875" xlink:href="#ArialMT-74"/>
      <use x="383.59375" xlink:href="#ArialMT-73"/>
      <use x="433.59375" xlink:href="#ArialMT-2e"/>
      <use x="461.376953125" xlink:href="#ArialMT-69"/>
      <use x="483.59375" xlink:href="#ArialMT-6e"/>
      <use x="539.208984375" xlink:href="#ArialMT-61"/>
      <use x="594.82421875" xlink:href="#ArialMT-63"/>
      <use x="644.82421875" xlink:href="#ArialMT-74"/>
      <use x="672.607421875" xlink:href="#ArialMT-69"/>
      <use x="694.82421875" xlink:href="#ArialMT-76"/>
      <use x="744.82421875" xlink:href="#ArialMT-65"/>
      <use x="800.439453125" xlink:href="#ArialMT-5f"/>
      <use x="856.0546875" xlink:href="#ArialMT-66"/>
      <use x="883.837890625" xlink:href="#ArialMT-69"/>
      <use x="906.0546875" xlink:href="#ArialMT-6c"/>
      <use x="928.271484375" xlink:href="#ArialMT-65"/>
     </g>
    </g>
   </g>
  </g>
 </g>
 <defs>
  <clipPath id="p1fed82349c">
   <rect height="316.8" width="446.4" x="72.0" y="39.6"/>
  </clipPath>
 </defs>
</svg>
